<svg xmlns="http://www.w3.org/2000/svg" width="1304" height="192" viewBox="0 0 1304 192" role="img" aria-labelledby="title">
  <title id="title">無料の構成案・デザイン案を相談する</title>
  <defs>
    <linearGradient id="button" x1="0" y1="0" x2="0" y2="1">
      <stop offset="0" stop-color="#ff900c"/><stop offset=".55" stop-color="#f87800"/><stop offset="1" stop-color="#e95d00"/>
    </linearGradient>
    <linearGradient id="shine" x1="0" y1="0" x2="0" y2="1">
      <stop offset="0" stop-color="#fff" stop-opacity=".38"/><stop offset=".42" stop-color="#fff" stop-opacity="0"/>
    </linearGradient>
  </defs>
  <rect x="5" y="5" width="1294" height="182" rx="26" fill="url(#button)" stroke="#f07400" stroke-width="10"/>
  <rect x="15" y="15" width="1274" height="162" rx="20" fill="none" stroke="#fff0b4" stroke-width="5"/>
  <path d="M17 18h1270v70H17z" fill="url(#shine)"/>
  <g fill="none" stroke="#fff" stroke-width="8" stroke-linecap="round" stroke-linejoin="round">
    <rect x="70" y="56" width="82" height="60" rx="5"/><path d="m75 61 36 29 36-29"/>
    <path d="M171 42h52l22 22v80h-74zM223 42v24h22M185 84h45M185 102h45M185 120h28"/>
  </g>
  <text x="698" y="116" fill="#fff" font-family="Helvetica Neue, Hiragino Kaku Gothic ProN, Yu Gothic, Meiryo, sans-serif" font-size="48" font-weight="800" text-anchor="middle"><tspan font-size="58" font-weight="900">無料</tspan><tspan>の構成案・デザイン案を相談する</tspan></text>
  <path d="m1218 67 34 29-34 29z" fill="#fff"/>
</svg>
