<svg xmlns="http://www.w3.org/2000/svg" width="525.19" height="364.76" viewBox="0 0 525.19 364.76">
  <g>
    <rect x="38.27" width="486.92" height="364.76" rx="15" style="fill: #19bbc7"/>
    <polygon points="43.74 154.7 0 172.8 43.74 193.92 43.74 154.7" style="fill: #19bbc7"/>
    <g>
      <path d="M95.72,72.74h-4.2V35h6.2c3.25,0,6.6.1,9.35,2a10.39,10.39,0,0,1,4.25,8.6,10.58,10.58,0,0,1-3.6,8.1c-2.55,2.1-5.8,2.5-9,2.5h-3Zm0-20.4h2.8c4.65,0,8.6-1.4,8.6-6.8,0-6.15-5-6.6-9.85-6.6H95.72Z" style="fill: #fff"/>
      <path d="M121.38,51.79h.11c1.39-1.85,2.59-3.2,5.2-3.2a7.07,7.07,0,0,1,3.6,1.1l-1.9,3.65a3.9,3.9,0,0,0-2.4-1.05c-4.41,0-4.61,5.65-4.61,8.7V72.74h-4V49.24h4Z" style="fill: #fff"/>
      <path d="M132.86,61a12.35,12.35,0,1,1,12.35,12.35A12.33,12.33,0,0,1,132.86,61Zm4,0c0,4.8,3.4,8.7,8.35,8.7s8.35-3.9,8.35-8.7-3.4-8.7-8.35-8.7S136.86,56.24,136.86,61Z" style="fill: #fff"/>
      <path d="M182.54,69.49h-.1a10,10,0,0,1-8.1,3.9c-6.9,0-11.25-5.85-11.25-12.35,0-6.7,4.25-12.45,11.3-12.45a10.16,10.16,0,0,1,8.05,4h.1V31.49h4V72.74h-4Zm-15.35-8.75c0,4.6,2.7,8.95,7.7,8.95,5.15,0,7.85-4.15,7.85-8.9s-3-8.5-7.9-8.5C170.19,52.29,167.19,56.34,167.19,60.74Z" style="fill: #fff"/>
      <path d="M199.09,62.34c0,4,.45,7.35,5.3,7.35s5.31-3.4,5.31-7.35V49.24h4V62.79c0,6.25-2.36,10.6-9.31,10.6s-9.3-4.35-9.3-10.6V49.24h4Z" style="fill: #fff"/>
      <path d="M240.25,56.24h-.1c-1.85-2.35-4.15-4-7.3-4a8.4,8.4,0,0,0-8.3,8.7c0,4.65,3.2,8.7,8.1,8.7a9.13,9.13,0,0,0,7.65-4h.1V71a12.84,12.84,0,0,1-7.45,2.4A12.17,12.17,0,0,1,220.45,61,12.4,12.4,0,0,1,233,48.59a12.66,12.66,0,0,1,7.25,2.35Z" style="fill: #fff"/>
      <path d="M252.59,72.74h-4V52.94h-2.45v-3.7h2.45V40.79h4v8.45h4.2v3.7h-4.2Z" style="fill: #fff"/>
      <path d="M271.82,54.69a3.75,3.75,0,0,0-3.2-2.4,2.85,2.85,0,0,0-2.9,2.6c0,2.15,2.7,3,5.45,4.1s5.45,2.8,5.45,6.75a7.69,7.69,0,0,1-7.95,7.65,8.45,8.45,0,0,1-8.3-6l3.55-1.5c1,2.2,2.15,3.75,4.8,3.75a3.57,3.57,0,0,0,3.8-3.6c0-5.25-10.6-3.45-10.6-10.85a6.7,6.7,0,0,1,7-6.65,7.1,7.1,0,0,1,6.25,4.35Z" style="fill: #fff"/>
    </g>
    <g>
      <path d="M321.67,74.66h-4l-.34-2.29h3.45q1.44,0,1.44-1.32l0-10.43h-6.58c-1.9,0-2.85-.86-2.85-2.59V55.17h-4a8,8,0,0,1-2.54,4.72,13.47,13.47,0,0,1-5.11,2.48l-.82-1.71a9.72,9.72,0,0,0,4.37-2.23,6.67,6.67,0,0,0,1.75-3.26h-7.15V74.79h-2.65V53.24h6.67l-2-4.75h-6.63v-2H309.1V43.67h2.82v2.79h14.57v2H320l-2.44,4.75h7.26V71.87a2.52,2.52,0,0,1-.88,2A3.37,3.37,0,0,1,321.67,74.66Zm-15.42-3.61v.89h-2.43v-9h13.54v8.13ZM306,53.24h9l2.14-4.75H304Zm8.89,11.52h-8.6v4.39h8.6Zm7.38-6.13,0-3.46h-7.08v2.14c0,.88.59,1.32,1.76,1.32Z" style="fill: #fff"/>
      <path d="M341.09,73.25h-7.57V74.5h-2.65V60h12.85V74.5h-2.63Zm-7.57-2h7.57V62h-7.57Zm1.21-14.58V45.26H357V56.64Zm19.55-9.31H337.4v7.28h16.88Zm4.15,25.92h-7.82V74.5H348V60H361.1V74.5h-2.67Zm-7.82-2h7.82V62h-7.82Z" style="fill: #fff"/>
      <path d="M382.87,73.44l-.66-2.3a19.3,19.3,0,0,0,9.41-3.2q3.9-2.7,3.9-8.07a9.09,9.09,0,0,0-3.15-7.4c-2.1-1.74-5-2.66-8.79-2.77q-.19,9.19-3.3,15.35t-7.8,6.15a5.23,5.23,0,0,1-4.57-2.47,10.5,10.5,0,0,1-1.66-6q0-5.87,5.05-10.54A18.41,18.41,0,0,1,394,50.76a10.62,10.62,0,0,1,4.22,8.89q0,6.42-4.26,9.83A20,20,0,0,1,382.87,73.44Zm-2-23.51a14.57,14.57,0,0,0-8.53,4.48,11.9,11.9,0,0,0-3.57,8.44,8.14,8.14,0,0,0,1,4.23,3.26,3.26,0,0,0,2.91,1.73q3.19,0,5.57-6A37.85,37.85,0,0,0,380.89,49.93Z" style="fill: #fff"/>
      <path d="M402.17,51.48v-2h11.6v2Zm3.21,22v1.28H403v-11h9.76v9.74Zm-2-26.81v-2h9.51v2Zm0,9.46v-2h9.28v2Zm0,4.69v-2h9.28v2Zm6.78,4.85h-4.78v5.88h4.78Zm4.46,9.18-1.24-1.69q5.81-3.18,5.81-10.6l0-1.32v-.65h-3.67v-11h3.64l-2.07-5.36,2.29-.64q1.68,3.81,2.43,6h4.05l2.44-6,2.72.64-2.69,5.36h3.87v11h-4.86V71a1.41,1.41,0,0,0,.2.8.92.92,0,0,0,.54.38,8,8,0,0,0,1.69.1,5.52,5.52,0,0,0,1.1-.08,1.36,1.36,0,0,0,.67-.4,3.17,3.17,0,0,0,.43-1.74q.09-1.42.09-3l2.14.22v4.36a2.53,2.53,0,0,1-.89,2c-.59.53-1.74.79-3.45.79-.94,0-1.84,0-2.69-.12a2.48,2.48,0,0,1-1.84-.82,3.08,3.08,0,0,1-.55-1.95V60.62h-3V62.3A15.61,15.61,0,0,1,419.94,70,11.44,11.44,0,0,1,414.66,74.88Zm15-23.36H418.06v7.11H429.7Z" style="fill: #fff"/>
      <path d="M442,67.43v2.15h-2.56V45.43h11v22Zm5.86-20H442v7.72h5.86ZM442,57.12v8.2h5.86v-8.2ZM465,74.5h-4.33l-.35-2.42h3.5q1.5,0,1.5-1.32V63h-8.61a21.84,21.84,0,0,1-2.16,6.63,18,18,0,0,1-3.8,5.17l-1.71-1.4a17,17,0,0,0,3.78-6,25.48,25.48,0,0,0,1.6-9.68V45.09H468.1V71.82a2.43,2.43,0,0,1-.88,2A3.3,3.3,0,0,1,465,74.5ZM465.36,61V55h-8.25v2.49q0,2.15-.12,3.51Zm0-8V47.09h-8.25V53Z" style="fill: #fff"/>
    </g>
    <rect x="57.61" y="100.13" width="447" height="76" rx="10" style="fill: #fff"/>
    <g>
      <path d="M246.63,128.28a16.41,16.41,0,0,1-5.77,1V127c1.08-.21,4.09-.77,5.81-3.15h5.39v27.86h-5.43Z" style="fill: #ed6d0f"/>
      <path d="M265.79,152.64v1.79h-4.73V123.56h30.21v30.87h-4.73v-1.79Zm20.75-2V125.52H265.79v25.16Zm-2.66-20.47v15.71H268.41V130.21Zm-10.88,2V144h6.3V132.17Z" style="fill: #ed6d0f"/>
      <path d="M324.53,123.1v31.57H319.7v-1.82H303.36v1.82h-4.87V123.1Zm-4.83,2H303.36v7.21H319.7Zm0,9.17H303.36v7.32H319.7Zm0,9.28H303.36v7.42H319.7Z" style="fill: #ed6d0f"/>
    </g>
  </g>
</svg>
