<svg xmlns="http://www.w3.org/2000/svg" width="520.34" height="119.52" viewBox="0 0 520.34 119.52">
  <g>
    <g>
      <path d="M18.42,30.75H36.05v6.19H8V30.75L25.07,10H8.88V3.79H35.5V10Z" style="fill: #fff"/>
      <path d="M70.09,31v5.94H42.91V3.79H69.54V9.72H50.48v7.44H67.31v5.68H50.48V31Z" style="fill: #fff"/>
      <path d="M106.24,31.93c0,3.62.67,4,1.3,4.33v.68h-8a10.55,10.55,0,0,1-.84-4.25V29.28c0-5-4.25-5-5.43-5H84.53V36.94H77V3.79H94.84c8.46,0,11.74,4.33,11.74,9a9.24,9.24,0,0,1-2.15,5.85,9.6,9.6,0,0,1-4.54,2.69,6.42,6.42,0,0,1,6.35,7ZM84.53,18.68H94c2.31,0,5-1.43,5-4.55,0-2.77-2.19-4.41-4.84-4.41H84.53Z" style="fill: #fff"/>
      <path d="M129.19,37.86c-8.54,0-16.66-5.76-16.66-17.5s8.12-17.5,16.66-17.5,16.66,5.68,16.66,17.5S137.65,37.86,129.19,37.86Zm-8.88-17.5c0,9.34,5.56,11.19,8.88,11.19,2.95,0,8.88-1.47,8.88-11.19s-5.81-11.19-8.88-11.19S120.31,10.77,120.31,20.36Z" style="fill: #fff"/>
      <path d="M165.07,32.31c3.2-.55,5.68-1,7.57-1.39a16.85,16.85,0,0,0-.55,5.51,177.16,177.16,0,0,1-18.21,3.2c-.09.46-.21,1.22-.89,1.22-.33,0-.54-.25-.67-.84l-1.26-5.89c2.15-.21,4.54-.47,7.32-.8V24.74h-6.31V19.27h18.59v5.47h-5.59ZM180.93,1.09a30.71,30.71,0,0,1,6.35,4.34A18.5,18.5,0,0,0,184.55,9H190v5.85H176.43c1.3,7.11,2.82,10.65,5.47,14.68.63,1,1.76,2.61,2.44,2.61s.92-.8,1.13-1.47.55-1.64.84-2.73a14.94,14.94,0,0,0,5,3.91c-.51,2.35-1.77,8-6.19,8s-11.73-8.24-14.47-25h-19V9h18c-.17-2.14-.46-5.42-.5-7.57l6.64.47c.26,0,.72.12.72.5,0,.55-.67.93-1,1.09,0,1.77.08,3.75.25,5.51h6.48a29.61,29.61,0,0,0-4.71-3.61Z" style="fill: #fff"/>
      <path d="M208.12,17.92a68.41,68.41,0,0,1,5.8,4.75,58.22,58.22,0,0,0,8.17-8.87H196.72V7.53h29.7A9.92,9.92,0,0,0,229.36,7l4.08,5A12.63,12.63,0,0,0,231.38,14a144.63,144.63,0,0,1-12.91,13.63,32.17,32.17,0,0,1,3.78,5c-1.51,1.35-3.95,3.54-5.46,4.92-1.52-2.81-4.17-7.61-13.26-14.76Z" style="fill: #fff"/>
      <path d="M274.07,17.42v7.15H237.51V17.42Z" style="fill: #fff"/>
      <path d="M293.7,17.25a70.68,70.68,0,0,1-6.9,9A27.9,27.9,0,0,0,281,22.09,50.4,50.4,0,0,0,293.78,1l6.86,2.69c.29.13.67.3.67.63s-.8.59-1.22.68c-.93,2.1-1.09,2.48-2.69,5.68h20.9v6.56H308.08c-.5,12.79-6.64,19.14-13.16,23.3A32.19,32.19,0,0,0,289.45,36c5.09-2.9,11.06-7,11.52-18.72Z" style="fill: #fff"/>
      <path d="M325.49,20.36v-6h36v6H347.75c-.17,4.59-1.06,9.26-4.76,13.38a20.41,20.41,0,0,1-9.17,6,20.54,20.54,0,0,0-5.05-5.21c9.55-2.61,12.12-8,12.2-14.14ZM355.7,3.45v6.1H331.51V3.45Z" style="fill: #fff"/>
      <path d="M387.58,38.91h-6.22V24.27a51.18,51.18,0,0,1-8.5,4.25,20,20,0,0,0-4.21-5A45.67,45.67,0,0,0,391.2,8.33l4.92,3.91c.17.17.34.3.34.51s-.38.33-.59.33a2.07,2.07,0,0,1-.5,0,64.64,64.64,0,0,1-7.79,7.07Z" style="fill: #fff"/>
      <path d="M409.66,2.9c7.07,3.62,9.26,5.72,10.52,6.9-1,1.22-1.3,1.68-4.08,5.72a43.4,43.4,0,0,0-10.6-6.73ZM406.21,32c12-2.48,23.81-10.6,31.3-22.63a27.32,27.32,0,0,0,4.33,5.72,55.66,55.66,0,0,1-13.08,14,70.17,70.17,0,0,1-17.33,9.38c0,.46-.21.93-.59.93s-.42-.13-.67-.59Z" style="fill: #fff"/>
      <path d="M474.84,8.08a7.12,7.12,0,0,0,3-.63l3.49,3c-.76,1.26-3.32,7-4.29,9.17-6.48,14.56-15.82,19.23-19.52,21.08a22.56,22.56,0,0,0-5.43-4.8,38.46,38.46,0,0,0,13.67-10A39.85,39.85,0,0,0,472,14.13H461.5A57.15,57.15,0,0,1,452,24.9a22.88,22.88,0,0,0-5.13-4.54c10.22-8.67,12.87-16.07,13.8-18.59l6.05,2.94c.17.09.55.3.55.63s-.59.55-1,.59c-.67,1.31-.8,1.64-1.09,2.15ZM473.49.46a34.78,34.78,0,0,1,4.13,4,38.22,38.22,0,0,0-3.45,2.36,35.63,35.63,0,0,0-4-4ZM480.18,0a39.47,39.47,0,0,1,4.13,4.33c-.55.38-3,2-3.54,2.32A22.4,22.4,0,0,0,477,2.23Z" style="fill: #fff"/>
      <path d="M514.93,16.39c-7.72-.12-14.41,6.82-14.41,11.89,0,3.62,4.6,5.4,8.85,5.5A42.79,42.79,0,0,0,507,39.47c-2.53-.69-11.5-3.19-11.5-10.66,0-5.79,4.47-9.95,5.75-10.76a84.76,84.76,0,0,0-12.94,2l-.72-5.88a101.18,101.18,0,0,0,13.91-.72,75,75,0,0,0,12.54-2.28Zm-5.19,4.44a19.37,19.37,0,0,1,2.91,3.35c-.87.63-1.31,1-2.41,1.88a25,25,0,0,0-2.78-3.54ZM513,18.61a20.7,20.7,0,0,1,2.78,3.29c-.78.59-1.31,1.06-2.28,1.94a23.66,23.66,0,0,0-2.78-3.54Z" style="fill: #fff"/>
    </g>
    <g>
      <g>
        <path d="M23.68,79.66c1.1,0,1.1.55,1.1.76a1.76,1.76,0,0,1-.13.59c3.54,4.12,9.72,8.2,17,10.77a18,18,0,0,0-3.79,5,47.5,47.5,0,0,1-17.5-12.07A43.82,43.82,0,0,1,4,97.2a13.68,13.68,0,0,0-4-4.88c5.6-2.18,12.79-6.52,16.74-12.95Zm15.65,32.48v5.47H2v-5.47H7.74v-14l6.35.34c.3,0,.93.12.93.63s-.51.63-.93.75v12.29h4.17V89.63l5.76.25c.55.05.84.26.84.55s-.08.38-.84.84V99H33.7v6H24v7.2Z" style="fill: #fff"/>
        <path d="M68.08,118.57H62.36V111.3c-4.08,3.36-9.42,6.39-11.82,7.15a13.52,13.52,0,0,0-4.38-4.17,40,40,0,0,0,12.25-6.73H46.16v-4.62h16.2v-1.27H51V97.41H62.36V96.24H48.18V91.73h8c-.21-.5-.85-1.85-.93-2H46.16V85.09H51.3c-.68-1.26-1-1.81-1.6-2.74l4.84-2.94c1,1.6,2.23,3.91,2.65,4.75l-1.73.93h2.9V80l5.6.21c.42,0,.84.08.84.46s-.29.55-.84.8v3.62H66V80l5.64.21c.17,0,.88,0,.88.55s-.59.67-.88.75v3.58h3.28l-2.4-.93a32.13,32.13,0,0,0,2.15-4.33l5.84,2.06a.54.54,0,0,1,.38.46c0,.59-.67.55-1.22.55a22.8,22.8,0,0,0-1.34,2.19h5.8v4.63H75.28c-.34.84-.68,1.68-.85,2h7.24v4.51H68.08v1.17h11v4.25h-11v1.27H84.15v4.62H72a37.37,37.37,0,0,0,12.15,6.57c-3,2.27-3.66,3.32-4.16,4.29a38,38,0,0,1-12-7.28ZM61.73,89.72l.88,2h5.3c.3-.63.47-.92.93-2Z" style="fill: #fff"/>
        <path d="M104.64,112.33c6.79-1.25,8.79-6.5,8.79-9.75a7.41,7.41,0,0,0-7.22-7.66c-1,11.44-5.69,20-9,20-2.44,0-7-4.13-7-9.91,0-6.73,6.13-14.57,15.32-14.57,6.85,0,12.82,4.66,12.82,12.13a14.58,14.58,0,0,1-3.69,9.66,17.28,17.28,0,0,1-6.78,4.53A20.49,20.49,0,0,0,104.64,112.33Zm-9.78-7.72c0,2.41,1.34,4.22,2,4.22s1.34-1.4,1.69-2.22A27.37,27.37,0,0,0,101,95.86C97.33,97.2,94.86,101.8,94.86,104.61Z" style="fill: #fff"/>
        <path d="M141.47,82.34c.25.14.59.43.59.68,0,.77-1.17.73-1.51.68-.68.92-4.71,6.07-8.84,10.59.82-.05,3.11-.24,4.66-.34-.39-1.75-.58-2.53-.87-3.5l4.61-1.31c.29.68.44,1,1.27,3.35a29,29,0,0,0,7.72-3.16,32,32,0,0,1-4.32-5.63l3.64-2.48h-6.36V75.53h21.53l3,3.11a37.16,37.16,0,0,1-7.14,10.74,40.49,40.49,0,0,0,9.47,3.79,18.66,18.66,0,0,0-3.5,5.74,29.18,29.18,0,0,1-5.78-2.24c.05.59-.29.83-.92,1.12v3.26h7.87v6.12h-7.87v4.57h9.77v6.37H140.6v-6.37h11.23v-4.57h-7.44v-6.12h7.44v-5.3l6.65.39a43.52,43.52,0,0,1-4.08-2.38A34.4,34.4,0,0,1,145,98.33,10,10,0,0,0,141.57,93c.63,1.9,1.22,3.64,1.65,5.54-.92.19-5.05,1.12-5.88,1.36-.05-.83-.09-1.07-.14-1.55l-.93.14v20.75h-6.41V103.77a3.8,3.8,0,0,1-.83.44c-.24,2-.82,7.43-2,10.59-1-.53-2-1.07-5.44-1.55a46.94,46.94,0,0,0,2.67-11.52l5,.78a1.47,1.47,0,0,1,.58.19V99.49c-.63.05-3.4.44-3.94.54-.48.82-.82,1.41-1.31,1.41s-.58-.68-.63-1l-1-6.18c.58,0,2.14-.09,2.82-.09,1.5-1.75,2.13-2.58,2.86-3.5A48,48,0,0,0,122,85.79l3.54-5.88c.49.34.78.58,1.12.82a51.39,51.39,0,0,0,3.6-6.85l5.83,2.72a.77.77,0,0,1,.44.54c0,.29-.49.77-1.51.68a50.15,50.15,0,0,1-3.79,6.27c.78.63,1,.82,1.36,1.16a46.18,46.18,0,0,0,3.4-5.59Zm.83,18a40.51,40.51,0,0,0,2.14,9.09,23.79,23.79,0,0,0-5.64,1.94,48.08,48.08,0,0,1-2.38-9.72Zm8.31-19.1a29.85,29.85,0,0,0,3.45,4.08,16.1,16.1,0,0,0,3.11-4.08Z" style="fill: #fff"/>
        <path d="M193.5,81.7a26.87,26.87,0,0,0-3.35-4.81l5.69-3a31.62,31.62,0,0,1,4.37,6.17c-.44.29-2.33,1.41-2.72,1.65h3.84a41.79,41.79,0,0,0,5.2-7.19l5.73,2.92a.79.79,0,0,1,.49.68c0,.39-.44.63-1.51.78-.87,1.45-1.45,2.38-1.79,2.81h9.47V93.56h-7.34V87.49H182.72v6.07h-7.29V81.7h7.09a28.76,28.76,0,0,0-2.82-3.93l5.64-2.87a33,33,0,0,1,4.13,5.74c-.19.14-1.12.72-1.7,1.06ZM214.6,104v15.07h-7.1v-1.36H187.14v1.36H180V104H191.8c.39-.78,1-2,1.17-2.28h-8.7V89.14h25.86v12.59h-9.38c-.15.34-.93,1.94-1.12,2.28Zm-7.1,8.36v-2.91H187.14v2.91Zm-16-18.27v2.67h11.62V94.1Z" style="fill: #fff"/>
        <path d="M243.18,82.24v5H225.83v-5Zm16.48,36.93h-6.32V109.7a27.82,27.82,0,0,1-8.07,7.58,18.9,18.9,0,0,0-2.57-2.87v3.89h-6.08V117h-2.86v2.09h-6.47V102.55H242.7v9a23.83,23.83,0,0,0,7.29-7.59h-6.71V98.37h10.06V96.24h-9V75.44h24.59v20.8h-9.23v2.13h11.13v5.54h-8.65a38.24,38.24,0,0,0,10.06,8.66,15.23,15.23,0,0,0-4.38,4.47c-3.59-2.48-5.88-4.33-8.16-7.39ZM241.53,75.44v5.2H227.88v-5.2Zm0,13.46V94H227.88V88.9Zm0,6.9v4.86H227.88V95.8Zm-7.77,12.25v3.25h2.86v-3.25Zm19.73-27.61h-3.21v3.11h3.21Zm0,7.68h-3.21v3.11h3.21Zm6-4.57h3.21V80.44h-3.21Zm0,7.68h3.21V88.12h-3.21Z" style="fill: #fff"/>
        <path d="M301.64,105.13V82.63h4.62c.24-.44.68-1.56.87-2H300V75.44h22.79v5.15h-9c-.19.43-.68,1.7-.87,2h8.65v22.5h-4a21.29,21.29,0,0,0,5.88,3.21,17.3,17.3,0,0,0-3.21,3.69c.88,0,2.87-.19,3.79-.29-.63.92-1.84,2.67-2.28,6.85-4,0-10.4.1-14.43.1-8.41,0-15.85-.15-22.46-5.69-.82,3.6-1.21,4.86-2,6.22a30.27,30.27,0,0,0-6.17-2.14,26.37,26.37,0,0,0,3.21-13.26c0-1.36-.1-2-.15-2.82l6.22.58c.44,0,1.12.1,1.12.68s-.44.68-1,.93c0,.53-.15,2.43-.2,2.67a24.52,24.52,0,0,0,2,1.85V99.59H278v-5.2h22.21v5.2H294v2.48h6v5.34h-6v3.84c2.62.88,5.1,1,9,1.22a16,16,0,0,0-4.57-3.36,41.88,41.88,0,0,0,6.56-4Zm-3-29.69v17.3h-19.2V75.44ZM292.12,82V80.15H286V82ZM286,86.13V88h6.08V86.13Zm24.45,20.7a1.08,1.08,0,0,1,.58.88c0,.58-1,.68-1.7.68-1.7,1.4-3.84,3.25-5.11,4.08,7.54.14,12.25-.15,13.86-.29a25.06,25.06,0,0,1-6.13-5l2.24-2H308.3Zm4.81-17.74V87.34h-7.39v1.75ZM307.91,93v1.75h7.39V93Zm0,5.64v1.79h7.39V98.67Z" style="fill: #fff"/>
        <path d="M344.33,89.57c.19,0,.63.13.63.57s-.57.46-.78.46l-.72,1.54a34.89,34.89,0,0,0,6.47-1.47v4.62c-4.66.82-5.22.91-8.91,1.35-.38.66-.44.78-1.22,2.16a5.87,5.87,0,0,1,2.72-.63,5.49,5.49,0,0,1,4.56,2.66c4.63-2.22,5.16-2.44,6.32-3.1l1.84,5a73.09,73.09,0,0,0-7.12,2.53c.06.9.09,1.87.09,2.81,0,1.41-.06,2.28-.09,3.13-1-.06-2.13-.06-3.13-.06a14.72,14.72,0,0,0-1.82.06,26.05,26.05,0,0,0,.22-3.57c-1.93,1.19-3.9,2.51-3.9,3.79s3.18,1.5,4.78,1.5a35,35,0,0,0,10-1.53,20,20,0,0,0-.59,5,39.18,39.18,0,0,1-8.72.9c-2.1,0-10.23,0-10.23-5.53,0-3.69,5-6.78,8.38-8.57a2.27,2.27,0,0,0-2.34-1.56c-3.25,0-5.44,3.5-7.16,6.28l-4.35-2.47A65.6,65.6,0,0,0,335.61,97c-1.69.07-3.07.07-4.41,0l0-4.54c1,.1,2.78.25,4.91.25.91,0,1.28,0,1.78,0a23,23,0,0,0,1.66-4.1Z" style="fill: #fff"/>
        <path d="M383.66,80.68V75.39H405c0,14.28,0,16.18-8.7,16.52l2.38.24c.73.1,1.5.15,1.5.68s-.48.59-1.06.83v1.56h5.54v5.44h-5.54v3.74h6.41v5.44h-6.41v9.24H392.8v-9.24h-8.6V104.4h8.6v-3.74h-4a24.13,24.13,0,0,1-1.65,3.16,12.87,12.87,0,0,0-4.47-2.14v12.44c0,4.76-1.75,4.81-7.78,5a16.44,16.44,0,0,0-2.14-6.32c.69.14,2.92.44,3.31.44,1.07,0,1.12-.73,1.12-1.66v-4.22h-8.75a30,30,0,0,1-3.6,11.76,18.62,18.62,0,0,0-5.59-3.16c3.21-4.47,3.75-7.92,3.75-16.53V89.24a18.75,18.75,0,0,0-4.18-1.7C359.9,86.37,364.9,80.78,367,74l6,1.26c.34,0,1,.19,1,.68s-.39.63-1.12.87c-.09.25-.14.35-.19.49h7.09l2,1.7a60.08,60.08,0,0,1-3.7,6.71h4.62v1.55c2.38-1.5,4.23-3.2,5-6.61Zm-12.83,5.06c.68-1.22,1-1.85,1.56-3h-2.48c-.63,1.11-1.17,2-1.85,3Zm-2.14,5.68v2.87h2.09V91.42Zm0,10.7h2.09V99.2h-2.09Zm6.42-10.7v2.87h2.09V91.42Zm2.09,7.78h-2.09v2.92h2.09ZM382.69,89v11.67c1.46-2.43,3-5.69,3.21-8.36A11.89,11.89,0,0,0,382.69,89Zm12.39,2.77a10.92,10.92,0,0,0-2.48-6.31,21.23,21.23,0,0,1-5.59,7l3.75.58c.48.1,1.07.14,1.07.63,0,.24-.1.49-1,.88,0,.24-.09.43-.14.68h2.14v-3.7Zm-.78-11.08a25.28,25.28,0,0,1-1.65,4.72,15.82,15.82,0,0,0,3.69.48c1.46,0,2.09,0,2.09-5.2Z" style="fill: #fff"/>
        <path d="M414.06,86.13a49.58,49.58,0,0,1,7.63,5.59,44.49,44.49,0,0,0-4.13,5.2,61.12,61.12,0,0,0-7.29-5.5ZM423.15,101V94.63h11.37c.05-.63.05-.87.05-2.09V88.17h-9.38V82.09h9.38v-8l7.05.35c1,0,1.26,0,1.26.58s-.49.78-1.26,1.12v6h12.05V94.63h2.67V101H442.83c2.82,5.73,8.26,9.57,13.85,12.25a15.23,15.23,0,0,0-4,6.07,36.64,36.64,0,0,1-14.15-12.25,26.32,26.32,0,0,1-14.77,12.45c-1.6-2.92-2.72-4.33-4.42-5.45-.68,1.41-1.12,2.24-2.14,4a.84.84,0,0,1,.29.63.64.64,0,0,1-.68.73,1.19,1.19,0,0,1-.78-.3l-5.63-3.74A50,50,0,0,0,418,100.22a15.68,15.68,0,0,0,5.49,3.84,54.73,54.73,0,0,1-4,9.67c4-.92,11.62-4,14.2-12.73Zm-6.61-27.36a41.11,41.11,0,0,1,7.77,5.15,43.65,43.65,0,0,0-4,5.59,50.9,50.9,0,0,0-7.44-5.59Zm30,21V88.17h-4.95v6.46Z" style="fill: #fff"/>
        <path d="M480.31,89.57c.5.07.78.1.78.35s-.37.47-.62.53c-.07.56-.1.94-.16,2.19,8.82-.38,9.78-.41,10.38-.47,0,.65-.09,3.75,0,5-5.66-.28-8-.28-10.32-.25a26.44,26.44,0,0,0,0,3.47c1.82,2.22,1.82,5.57,1.82,6A14.78,14.78,0,0,1,475,118.49a20.83,20.83,0,0,0-4.56-3.22c.94-.37,4.63-1.94,5.75-4.5a3.5,3.5,0,0,1-2.47.75,4.19,4.19,0,0,1-3.38-1.41,7.86,7.86,0,0,1-1.34-4.62c0-6.88,5.88-6.66,6.54-6.57,0-1,0-1.28,0-1.75a84.5,84.5,0,0,0-12.48,1.63l-.34-5.29c.72,0,1.91,0,12.69-.65a32.7,32.7,0,0,0-.44-4Zm-7.22,15.64c0,2.06,1,2.62,1.59,2.62,1,0,1.53-1.44,1.53-3,0-.72-.15-1.94-1.4-1.94C473.77,102.89,473.09,103.92,473.09,105.21Z" style="fill: #fff"/>
        <path d="M515.62,92.76a77.15,77.15,0,0,0-7.66,7,17.4,17.4,0,0,1,3.75-.46c4.25,0,8.63,2.68,8.63,8.22,0,6.88-6.54,9.88-12,9.88-4,0-7.94-1.6-7.94-5.38,0-3.09,2.88-5,6.13-5,2.94,0,6,1.65,6.72,4.59a4.13,4.13,0,0,0,2.07-3.69c0-.75-.25-4.56-5.1-4.56-5.28,0-8.29,3.09-12.63,7.63l-3.75-3.66a83.34,83.34,0,0,0,12.66-12.16,63.81,63.81,0,0,1-8.32,1.09l-.75-4.91c1.22,0,10.26.13,15.64-2Zm-9.41,18.14c-1.07,0-1.32.59-1.32,1.12,0,1.19,1.75,1.66,2.82,1.66a5.32,5.32,0,0,0,1.56-.25A3.06,3.06,0,0,0,506.21,110.9Z" style="fill: #fff"/>
      </g>
      <path d="M150.52,55c4.3,5.63-2.07,12-7.71,7.71C138.52,57,144.89,50.66,150.52,55Z" style="fill: #fff"/>
      <path d="M202,55c4.29,5.63-2.08,12-7.72,7.71C190,57,196.32,50.66,202,55Z" style="fill: #fff"/>
      <path d="M253.39,55c4.3,5.63-2.07,12-7.71,7.71C241.39,57,247.76,50.66,253.39,55Z" style="fill: #fff"/>
      <path d="M304.83,55c4.29,5.63-2.08,12-7.71,7.71C292.83,57,299.19,50.66,304.83,55Z" style="fill: #fff"/>
      <path d="M388.26,55c4.29,5.63-2.08,12-7.72,7.71C376.26,57,382.62,50.66,388.26,55Z" style="fill: #fff"/>
      <path d="M436.86,55c4.29,5.63-2.08,12-7.72,7.71C424.86,57,431.22,50.66,436.86,55Z" style="fill: #fff"/>
    </g>
  </g>
</svg>
