<svg xmlns="http://www.w3.org/2000/svg" width="950" height="151" viewBox="0 0 950 151" role="img" aria-label="商品の可能性を、今の業界だけで決めない。 別の業界の課題に応えるLPで、新たな顧客を開拓する。">
<title>商品の可能性を、今の業界だけで決めない。 別の業界の課題に応えるLPで、新たな顧客を開拓する。</title><defs><linearGradient id="ground" x2="1" y2="1"><stop stop-color="#20282e"/><stop offset="1" stop-color="#090d11"/></linearGradient><pattern id="dots" width="4" height="4" patternUnits="userSpaceOnUse"><circle cx="1" cy="1" r=".7" fill="#758492" opacity=".4"/></pattern><path id="bg-36" d="M83.62 0.00L65.31 0.00L58.03 23.09L24.75 23.09L17.89 0.00L0.00 0.00L32.45 101.65L50.27 101.65ZM52.63 40.21L41.19 77.93L29.88 40.21Z"/><path id="bg-40" d="M8.53 0.00L8.53 101.65L70.38 101.65L70.38 84.45L25.31 84.45L25.31 61.92L67.19 61.92L67.19 44.79L25.31 44.79L25.31 17.13L71.90 17.13L71.90 0.00Z"/><path id="bg-46" d="M8.67 0.00L8.67 101.65L25.45 101.65L25.45 56.51L59.49 101.65L82.16 101.65L50.75 62.06L83.83 0.00L62.06 0.00L39.11 47.70L25.45 30.72L25.45 0.00Z"/><path id="bg-48" d="M8.25 0.00L8.25 101.65L33.42 101.65L48.54 32.31L63.51 101.65L88.75 101.65L88.75 0.00L73.15 0.00L73.15 80.01L56.58 0.00L40.35 0.00L23.92 80.01L23.92 0.00Z"/><path id="bg-49" d="M8.67 0.00L8.67 101.65L25.03 101.65L59.14 33.77L59.14 101.65L74.81 101.65L74.81 0.00L57.90 0.00L24.34 66.29L24.34 0.00Z"/><path id="bg-53" d="M8.53 0.00L8.53 101.65L43.96 101.65Q57.55 101.65 63.37 98.91Q69.20 96.17 72.94 89.41Q76.69 82.65 76.69 73.22Q76.69 61.29 70.97 54.01Q65.25 46.73 54.71 44.86Q60.11 40.98 63.65 36.37Q67.19 31.76 73.29 19.83L83.41 0.00L63.37 0.00L51.17 22.12Q44.58 34.11 42.23 37.13Q39.87 40.15 37.23 41.29Q34.60 42.43 28.77 42.43L25.31 42.43L25.31 0.00ZM25.31 58.66L37.79 58.66Q49.23 58.66 52.35 59.66Q55.47 60.67 57.41 63.72Q59.35 66.77 59.35 71.83Q59.35 76.69 57.41 79.63Q55.47 82.58 52.14 83.69Q49.78 84.45 38.48 84.45L25.31 84.45Z"/><path id="bg-55" d="M27.25 0.00L27.25 84.45L2.50 84.45L2.50 101.65L68.71 101.65L68.71 84.45L44.03 84.45L44.03 0.00Z"/><path id="bg-58" d="M20.25 0.00L0.35 101.65L17.61 101.65L30.09 31.83L45.35 101.65L65.38 101.65L80.01 30.65L92.84 101.65L109.76 101.65L89.51 0.00L71.62 0.00L54.98 75.99L38.48 0.00Z"/><path id="copy-1312" d="M16.16 20.26L13.66 18.08C17.18 16.26 19.33 14.72 21.70 12.35L24.61 15.46C21.86 17.60 20.48 18.53 17.38 20.26L26.69 20.26C28.38 20.26 29.44 20.22 30.59 20.10L30.59 24.32C29.60 24.19 28.45 24.13 26.69 24.13L18.78 24.13L18.78 25.34C18.78 26.18 18.82 26.62 18.91 27.10L14.37 27.10C14.46 26.56 14.53 26.08 14.53 25.41L14.53 24.13L6.53 24.13C5.06 24.13 4.22 24.16 3.10 24.26C3.20 23.14 3.23 21.86 3.23 19.78C3.23 14.94 2.94 9.31 2.56 7.01C2.18 4.61 1.63 2.88 0.58 0.74C1.95 -0.32 2.75 -1.09 3.97 -2.62C5.22 0.06 5.89 2.18 6.40 5.15C7.07 8.77 7.30 12.35 7.30 20.26ZM10.43 -0.70C11.94 3.46 12.48 6.24 12.90 12.42L9.06 13.38C8.93 10.69 8.80 9.44 8.48 7.36C8.06 4.86 7.74 3.81 6.75 1.50ZM13.98 15.01C14.11 14.24 14.18 13.41 14.18 11.97L14.18 0.06C14.18 -1.06 14.56 -1.70 15.46 -2.05C16.13 -2.34 17.54 -2.46 19.71 -2.46C22.56 -2.46 23.84 -2.08 24.54 -1.06C25.22 -0.10 25.47 1.50 25.73 5.86C24.45 6.08 23.46 6.43 21.92 7.14C21.92 4.54 21.82 2.88 21.66 2.34C21.47 1.73 21.09 1.57 19.74 1.57C18.43 1.57 18.21 1.70 18.21 2.43L18.21 11.94C18.21 13.31 18.24 14.27 18.37 15.01ZM31.20 1.73C30.11 6.21 29.22 8.86 27.10 13.57L23.52 11.84C25.54 7.58 26.37 4.90 27.20 -0.19Z"/><path id="copy-1348" d="M23.04 21.95L23.04 2.43C23.04 1.60 22.78 1.44 21.57 1.44C20.32 1.44 18.72 1.54 16.90 1.76C17.47 0.58 17.82 -0.86 17.98 -2.43C19.20 -2.50 20.51 -2.53 21.34 -2.53C26.30 -2.53 27.30 -1.86 27.30 1.50L27.30 21.95C28.83 21.92 29.60 21.86 30.72 21.76L30.72 26.02C29.34 25.89 28.03 25.82 26.53 25.82L5.82 25.82C4.26 25.82 2.94 25.89 1.70 26.02L1.70 21.76C3.20 21.89 4.45 21.95 5.89 21.95ZM19.36 16.35C19.36 17.70 19.39 18.24 19.49 19.10C18.59 19.01 17.70 18.98 16.42 18.98L7.74 18.98C6.46 18.98 5.60 19.01 4.77 19.10C4.90 18.18 4.93 17.34 4.93 16.10L4.93 5.98C4.93 4.99 4.86 4.10 4.74 3.01L9.06 3.01L9.06 5.50L16.54 5.50C17.38 5.50 18.85 5.44 19.49 5.38C19.39 6.30 19.36 7.04 19.36 8.06ZM9.02 15.26L15.30 15.26L15.30 9.22L9.02 9.22Z"/><path id="copy-1373" d="M11.97 1.15C12.86 0.13 13.28 -0.51 13.98 -1.76C16.96 0.26 18.18 1.50 19.74 4.00C19.71 2.98 19.71 2.78 19.71 1.82L19.71 0.19C19.71 -1.09 19.68 -1.79 19.52 -2.72L23.55 -2.72C23.42 -1.82 23.36 -1.02 23.36 0.26L23.36 1.89C23.36 2.75 23.36 3.04 23.30 4.10C24.86 1.79 26.59 0.13 29.34 -1.82C29.98 -0.22 30.53 0.77 31.42 2.11C28.26 3.71 26.72 4.99 24.99 7.39L27.78 7.39C29.25 7.39 30.02 7.36 30.85 7.23L30.85 11.23C29.86 11.07 29.18 11.04 27.58 11.04L23.33 11.04L23.33 12.74L26.82 12.74C28.19 12.74 28.99 12.70 29.92 12.61C29.82 13.41 29.79 14.40 29.79 15.68L29.79 23.20C29.79 24.58 29.82 25.60 29.92 26.27C29.28 26.21 28.54 26.18 27.23 26.18L16.32 26.18C14.94 26.18 14.14 26.21 13.34 26.27C13.44 25.50 13.47 24.83 13.47 23.30L13.47 15.55C13.47 14.27 13.44 13.34 13.34 12.61C14.14 12.70 14.94 12.74 16.22 12.74L19.71 12.74L19.71 11.04L15.90 11.04C14.27 11.04 13.50 11.07 12.61 11.23L12.61 7.23C13.47 7.36 14.18 7.39 15.68 7.39L18.08 7.39C16.48 4.99 14.66 3.36 11.97 1.92L11.97 5.44C11.97 6.62 11.97 7.07 12.03 7.68C11.49 7.62 10.94 7.58 9.98 7.58L4.51 7.58C3.07 7.58 2.85 7.58 2.08 7.68C2.18 6.85 2.21 6.24 2.21 5.25L2.21 0.32C2.21 -0.67 2.14 -1.82 2.05 -2.78L5.92 -2.78L5.92 -1.38L8.42 -1.38L8.42 -2.34L12.06 -2.34C12.00 -1.60 12.00 -1.60 11.97 -0.26ZM19.74 22.88L19.74 20.96L17.06 20.96L17.06 22.88ZM23.30 22.88L26.21 22.88L26.21 20.96L23.30 20.96ZM19.74 17.89L19.74 15.90L17.06 15.90L17.06 17.89ZM23.30 17.89L26.24 17.89L26.24 15.90L23.30 15.90ZM5.82 4.51L8.45 4.51L8.45 1.92L5.82 1.92ZM2.18 22.82C2.98 22.88 3.68 22.91 4.90 22.91L9.22 22.91C10.46 22.91 11.04 22.88 11.94 22.82L11.94 26.24C11.14 26.14 10.59 26.11 9.22 26.11L4.90 26.11C3.49 26.11 2.98 26.14 2.18 26.24ZM1.15 17.95C1.89 18.05 2.62 18.08 3.74 18.08L9.89 18.08C11.26 18.08 11.68 18.08 12.35 17.98L12.35 21.73C11.62 21.63 11.07 21.60 9.76 21.60L3.74 21.60C2.53 21.60 1.92 21.63 1.15 21.76ZM2.21 13.44C2.82 13.54 3.14 13.54 4.16 13.54L9.95 13.54C10.85 13.54 11.26 13.50 11.84 13.44L11.84 16.74C11.30 16.64 11.01 16.64 9.95 16.64L4.16 16.64C3.14 16.64 2.85 16.64 2.21 16.74ZM2.21 8.90C2.82 8.96 3.20 8.99 4.13 8.99L9.89 8.99C10.91 8.99 11.26 8.96 11.84 8.90L11.84 12.19C11.30 12.10 10.98 12.10 9.92 12.10L4.16 12.10C3.17 12.10 2.82 12.10 2.21 12.19Z"/><path id="copy-1412" d="M9.50 12.61C8.42 11.49 7.17 10.62 5.50 9.86C4.10 9.22 2.30 8.54 0.70 8.13C1.63 6.75 2.05 6.02 2.75 4.22C5.66 5.31 7.58 6.34 9.73 7.90C9.73 4.93 8.77 3.30 6.27 2.02C5.09 1.38 4.29 1.12 2.05 0.58C3.36 -0.83 3.62 -1.22 4.54 -3.04C8.13 -1.89 9.79 -0.99 11.33 0.61C12.93 2.34 13.79 4.74 13.92 7.81C13.95 8.51 13.98 8.83 14.05 9.22L11.33 9.22C12.70 10.43 13.44 11.20 14.40 12.61L17.34 12.61C18.50 11.17 19.20 10.43 20.64 9.22L18.53 9.22C18.62 8.48 18.66 7.81 18.66 6.66L18.66 0.96C18.66 -0.54 18.59 -1.66 18.46 -2.72L23.07 -2.72C22.94 -1.63 22.88 -0.51 22.88 0.93L22.88 7.49C24.93 6.14 26.78 5.22 29.41 4.19C30.05 6.02 30.46 6.88 31.36 8.32C29.63 8.77 28.29 9.25 26.50 10.02C24.86 10.72 23.55 11.55 22.37 12.61L24.77 12.61C26.37 12.61 27.33 12.58 28.35 12.48C28.22 13.41 28.19 14.37 28.19 15.97L28.19 22.62C28.19 24.29 28.22 25.25 28.35 26.18C27.33 26.08 26.40 26.05 24.77 26.05L7.33 26.05C5.66 26.05 4.74 26.08 3.71 26.18C3.84 25.12 3.87 24.32 3.87 22.62L3.87 15.97C3.87 14.37 3.84 13.50 3.71 12.48C4.70 12.58 5.73 12.61 7.23 12.61ZM7.90 22.66L13.89 22.66L13.89 20.77L7.90 20.77ZM7.90 17.70L13.89 17.70L13.89 15.78L7.90 15.78ZM17.86 22.66L24.16 22.66L24.16 20.77L17.86 20.77ZM17.86 17.70L24.16 17.70L24.16 15.78L17.86 15.78Z"/><path id="copy-1417" d="M7.55 5.02C8.29 5.12 9.09 5.15 10.66 5.15C10.27 3.14 9.50 1.89 7.52 0.32C8.96 -0.67 8.96 -0.67 10.72 -2.30C12.99 -0.06 13.98 1.95 14.46 5.15L17.31 5.15L17.31 0.93C17.31 -0.48 17.28 -0.99 17.18 -1.79L21.18 -1.79C21.09 -1.15 21.06 -0.54 21.06 0.93L21.06 5.15C22.78 5.15 23.46 5.12 24.51 5.02L24.51 8.42C23.52 8.32 22.85 8.29 21.06 8.29L21.06 10.94C22.53 10.94 23.20 10.91 24.06 10.82L24.06 14.14C23.20 14.05 22.24 14.02 20.61 14.02L11.46 14.02C9.89 14.02 8.96 14.05 8.13 14.14L8.13 10.82C8.96 10.91 9.73 10.94 11.04 10.94C11.01 9.31 11.01 9.31 10.98 8.29C9.25 8.29 8.54 8.32 7.55 8.42ZM17.31 10.94L17.31 8.29L14.69 8.29C14.69 8.67 14.69 8.67 14.69 9.34C14.72 10.37 14.72 10.37 14.72 10.94ZM6.40 15.42L12.22 15.42C13.22 15.42 14.27 15.39 15.01 15.36C14.94 16.10 14.94 16.64 14.94 18.18L14.94 23.33C14.94 24.51 14.98 25.31 15.04 26.30C14.21 26.21 13.47 26.18 11.78 26.18L5.50 26.18C3.94 26.18 3.10 26.21 2.24 26.30C2.34 25.28 2.37 24.42 2.37 22.66L2.37 1.50C2.37 -0.58 2.30 -1.63 2.18 -2.62L6.59 -2.62C6.46 -1.66 6.40 -0.48 6.40 1.44ZM6.40 23.36L11.20 23.36L11.20 21.95L6.40 21.95ZM6.40 19.46L11.20 19.46L11.20 18.02L6.40 18.02ZM29.73 22.72C29.73 24.38 29.76 25.18 29.86 26.30C28.99 26.21 28.16 26.18 26.59 26.18L20.06 26.18C18.43 26.18 17.66 26.21 16.80 26.30C16.86 25.38 16.90 24.51 16.90 23.33L16.90 18.18C16.90 16.74 16.90 16.16 16.83 15.36C17.89 15.39 18.50 15.42 19.62 15.42L25.73 15.42L25.73 2.30C25.73 1.63 25.57 1.50 24.77 1.50C23.71 1.50 23.07 1.57 21.89 1.73C22.46 0.26 22.69 -0.54 22.88 -2.27C23.68 -2.34 24.00 -2.34 24.74 -2.34C28.77 -2.34 29.73 -1.57 29.73 1.70ZM20.70 23.36L25.73 23.36L25.73 21.95L20.70 21.95ZM20.70 19.46L25.73 19.46L25.73 18.02L20.70 18.02Z"/><path id="copy-1644" d="M5.76 0.42C5.76 -0.61 5.70 -1.60 5.60 -2.69L9.76 -2.69L9.76 -1.54L22.43 -1.54L22.43 -2.69L26.69 -2.69C26.56 -1.79 26.53 -1.12 26.53 0.35L26.53 5.02C26.53 5.73 26.53 6.05 26.56 6.72C27.62 6.46 28.06 6.40 29.60 6.08C30.08 7.81 30.46 8.74 31.30 10.24C28.26 10.46 26.88 10.62 25.09 10.98C23.04 11.36 21.34 11.81 19.78 12.38C21.50 13.63 23.46 15.33 25.57 17.38L23.01 19.68C22.43 19.58 21.70 19.55 20.58 19.55L14.62 19.55C14.98 20.00 15.33 20.54 15.74 21.18L26.11 21.18L26.11 17.02L30.27 17.02C30.14 17.76 30.11 18.46 30.11 19.49L30.11 22.53C30.11 23.65 30.14 24.29 30.24 24.96C29.12 24.86 28.19 24.83 26.40 24.83L18.02 24.83L18.02 25.15C18.02 25.89 18.08 26.66 18.18 27.10L13.57 27.10C13.73 26.27 13.73 25.95 13.73 25.12L13.73 24.83L5.66 24.83C3.97 24.83 2.98 24.86 1.89 24.96C1.98 24.22 2.02 23.52 2.02 22.53L2.02 19.55C2.02 18.56 1.98 17.86 1.86 17.06L5.95 17.06L5.95 21.18L11.42 21.18C10.69 20.10 9.95 19.33 8.61 18.21C6.66 16.54 4.86 15.52 2.02 14.43C3.20 13.22 3.71 12.54 4.45 11.26C6.27 12.06 7.71 12.96 9.54 14.30C10.50 13.44 11.04 12.99 12.10 12.26C10.50 11.55 9.09 11.10 7.01 10.53C4.86 9.98 4.03 9.82 0.86 9.38C1.73 7.94 2.18 6.98 2.56 5.73C3.87 6.02 4.26 6.11 5.73 6.50C5.76 5.98 5.76 5.66 5.76 5.06ZM18.85 16.38C17.54 15.30 16.99 14.91 15.90 14.24C14.62 14.94 13.86 15.46 12.67 16.38ZM10.40 7.81C12.58 8.48 14.02 9.06 15.97 10.02C17.95 9.09 19.62 8.48 22.11 7.81ZM9.76 4.32L22.46 4.32L22.46 1.92L9.76 1.92Z"/><path id="copy-1728" d="M13.79 13.98L13.79 12.74L7.36 12.74C5.95 12.74 4.99 12.77 4.16 12.90L4.16 9.66C5.09 9.76 5.98 9.79 7.36 9.79L13.79 9.79L13.79 8.58L5.57 8.58C3.78 8.58 2.62 8.64 1.60 8.77L1.60 5.18C2.85 5.31 4.03 5.38 5.60 5.38L10.91 5.38C8.32 3.39 5.31 2.14 0.86 1.28C1.89 0.03 2.53 -1.02 3.10 -2.40C5.57 -1.66 7.46 -0.86 9.34 0.19C11.20 1.22 12.13 1.92 13.89 3.58C13.82 2.43 13.82 2.34 13.82 1.57L13.82 0.29C13.82 -0.96 13.76 -1.95 13.63 -2.91L17.92 -2.91C17.79 -2.05 17.73 -1.06 17.73 0.29L17.73 1.60C17.73 2.40 17.73 2.56 17.66 3.65C20.45 0.86 24.00 -1.02 29.06 -2.40C29.70 -0.80 30.11 -0.03 31.17 1.44C26.50 2.21 23.17 3.46 20.70 5.38L26.50 5.38C28.00 5.38 29.18 5.31 30.43 5.18L30.43 8.77C29.47 8.64 28.32 8.58 26.46 8.58L17.76 8.58L17.76 9.79L24.58 9.79C25.95 9.79 26.85 9.76 27.78 9.66L27.78 12.90C26.88 12.77 25.92 12.74 24.58 12.74L17.76 12.74L17.76 13.98L26.08 13.98C27.52 13.98 28.19 13.95 29.28 13.86L29.28 17.25C28.35 17.15 27.58 17.12 26.08 17.12L22.75 17.12C23.07 17.73 23.10 17.79 23.68 19.01L26.62 19.01C28.19 19.01 29.54 18.94 30.53 18.85L30.53 22.56C29.50 22.43 28.54 22.37 26.85 22.37L26.40 22.37C27.04 23.23 27.52 24.03 28.19 25.22L24.32 26.59C23.74 24.99 23.23 24.03 22.14 22.37L20.64 22.37L20.64 24.54C20.64 25.54 20.70 26.40 20.80 26.98L16.67 26.98C16.77 26.37 16.80 25.70 16.80 24.74L16.80 22.37L14.91 22.37L14.91 24.74C14.91 25.73 14.94 26.40 15.01 26.98L10.91 26.98C11.01 26.30 11.07 25.54 11.07 24.54L11.07 22.37L9.66 22.37C8.67 24.54 8.42 25.02 7.39 26.53L3.55 25.15C4.61 23.90 4.96 23.39 5.50 22.37L5.02 22.37C3.42 22.37 2.40 22.43 1.38 22.56L1.38 18.85C2.37 18.94 3.68 19.01 5.22 19.01L8.38 19.01C8.74 18.43 8.86 18.14 9.34 17.12L5.82 17.12C4.32 17.12 3.58 17.15 2.66 17.25L2.66 13.86C3.71 13.95 4.42 13.98 5.82 13.98ZM13.50 17.12C13.22 17.92 13.06 18.27 12.74 19.01L19.26 19.01C18.98 18.24 18.85 17.98 18.43 17.12Z"/><path id="copy-1854" d="M27.20 9.70C28.67 9.70 29.79 9.63 30.88 9.50L30.88 13.86C29.95 13.73 29.50 13.70 28.42 13.66L28.42 20.13C28.42 21.31 28.45 21.95 28.54 22.62C27.81 22.53 27.07 22.50 25.50 22.50L20.64 22.50L20.64 24.03C20.64 25.41 20.67 25.98 20.83 26.91L16.29 26.91C16.42 25.98 16.48 25.31 16.48 23.94L16.48 22.50L14.34 22.50C12.93 22.50 11.84 22.56 10.82 22.66L10.82 18.46C11.71 18.56 12.93 18.62 14.34 18.62L16.48 18.62C16.48 16.48 16.42 15.10 16.32 13.66L13.18 13.66C11.71 13.66 10.53 13.73 9.50 13.82L9.50 9.50C10.53 9.63 11.65 9.70 13.22 9.70L15.81 9.70C15.42 8.06 14.78 6.69 13.86 5.41C12.38 3.42 10.66 2.14 7.42 0.77C8.67 -0.64 9.28 -1.54 10.02 -3.07C14.85 -0.48 17.50 2.34 19.10 6.59C20.80 2.85 24.35 -0.58 28.93 -2.82C29.63 -0.90 30.11 0.13 31.04 1.54C28.38 2.53 26.69 3.58 24.90 5.25C23.46 6.56 22.50 7.84 21.54 9.70ZM20.42 13.66C20.54 15.33 20.58 16.51 20.61 18.62L24.38 18.62L24.38 13.66ZM1.92 23.78C4.45 22.18 5.47 21.34 7.62 19.26L10.27 22.62C8.06 24.58 6.82 25.50 4.51 26.82ZM0.86 15.71C3.17 14.30 4.48 13.34 6.72 11.36L9.12 14.85C6.78 16.74 5.60 17.54 3.26 18.82ZM5.54 10.08C4.32 6.40 3.52 4.48 2.21 2.21C1.79 1.50 1.47 1.09 0.93 0.42L4.51 -2.75C6.21 0.22 7.68 3.68 8.90 7.71Z"/><path id="copy-1936" d="M13.92 2.75L14.34 2.75C15.23 2.75 15.46 2.75 16.13 2.69L16.13 5.25C15.68 5.18 15.33 5.15 14.37 5.15L13.92 5.15L13.92 6.30L14.34 6.30C15.23 6.30 15.46 6.30 16.13 6.24L16.13 8.80C15.68 8.70 15.30 8.70 14.37 8.70L13.92 8.70L13.92 9.89L14.21 9.89C15.23 9.89 15.90 9.86 16.48 9.79L16.48 12.77C15.87 12.67 15.39 12.64 14.30 12.64C14.56 13.12 14.56 13.12 15.04 14.40C15.42 14.37 15.42 14.37 16.10 14.34C16.03 14.94 16.00 15.33 16.00 16.64L16.00 19.33C16.00 20.67 16.00 20.86 16.10 21.41C15.30 21.31 14.85 21.31 12.99 21.31L5.50 21.31C3.78 21.31 3.23 21.31 2.40 21.41C2.46 20.06 2.50 19.07 2.50 16.61C2.50 8.54 2.05 5.06 0.61 1.92C1.66 0.90 2.66 -0.51 3.42 -2.02C4.83 1.06 5.38 3.17 5.79 7.58C6.02 7.36 6.08 7.30 6.27 7.04L6.27 0.29C6.27 -0.90 6.21 -1.70 6.08 -2.72L9.60 -2.72L9.60 -1.28L14.21 -1.28C14.78 -1.28 15.14 -1.28 15.84 -1.31C16.51 -2.14 16.70 -2.40 17.15 -3.20C19.84 -1.79 21.22 -0.74 23.14 1.38L20.83 3.39L25.31 3.39L23.30 1.38C25.47 -0.74 26.59 -1.60 28.83 -2.98C29.79 -1.41 30.37 -0.61 31.33 0.45C29.06 1.41 28.03 2.05 26.46 3.39L26.94 3.39C27.78 3.39 28.77 3.36 29.70 3.30C29.60 4.38 29.57 5.44 29.57 6.72L29.57 17.54C29.57 18.72 29.60 19.62 29.70 20.54C28.96 20.48 28.22 20.45 26.43 20.45L24.74 20.45C25.06 21.12 25.25 21.54 25.54 22.34L27.17 22.34C28.90 22.34 29.89 22.30 30.78 22.18L30.78 26.18C29.98 26.05 29.06 26.02 27.17 26.02L20.38 26.02C18.56 26.02 17.73 26.05 16.86 26.18L16.86 22.18C17.82 22.30 18.53 22.34 19.81 22.34L21.44 22.34C21.18 21.66 21.02 21.22 20.64 20.45L19.97 20.45C18.43 20.45 18.14 20.45 17.28 20.51C17.31 20.16 17.34 19.14 17.38 17.50L17.38 6.24C17.38 5.28 17.34 4.29 17.31 3.33C18.08 3.36 18.66 3.39 19.71 3.39L20.00 3.39C19.14 2.43 18.27 1.76 16.77 0.93L16.77 1.60C15.68 1.57 15.23 1.57 14.34 1.57L13.92 1.57ZM9.50 8.64L9.50 9.89L11.17 9.89L11.17 8.64ZM9.50 6.34L11.17 6.34L11.17 5.12L9.50 5.12ZM9.50 2.82L11.17 2.82L11.17 1.57L9.50 1.57ZM10.11 12.64C10.46 13.44 10.72 14.02 10.85 14.40L12.29 14.40C12.13 13.86 12.03 13.57 11.65 12.64ZM8.06 14.40C7.52 12.74 6.94 11.58 6.02 10.14C6.14 11.71 6.18 12.38 6.21 14.40ZM6.24 18.50L12.35 18.50L12.35 17.15L6.18 17.15C6.24 17.31 6.24 17.44 6.24 17.98ZM21.09 17.25L25.86 17.25L25.86 15.81L21.09 15.81ZM21.09 12.83L25.86 12.83L25.86 11.33L21.09 11.33ZM21.09 8.38L25.86 8.38L25.86 6.82L21.09 6.82ZM1.60 22.30C2.56 22.43 3.46 22.46 5.12 22.46L13.34 22.46C14.56 22.46 15.33 22.43 16.22 22.34L16.22 26.14C15.26 26.05 14.30 25.98 12.70 25.98L5.12 25.98C3.30 25.98 2.46 26.02 1.60 26.14Z"/><path id="copy-2067" d="M8.38 14.27C9.41 14.40 10.21 14.43 11.55 14.43L20.32 14.43C21.50 14.43 22.56 14.40 23.58 14.27L23.58 16.67C25.50 15.46 27.04 14.66 29.34 13.66C29.95 15.30 30.56 16.51 31.49 17.95C28.67 18.88 26.59 19.90 24.26 21.44C21.63 23.20 19.74 24.99 18.14 27.20L13.50 27.20C12.70 25.86 11.55 24.61 9.73 23.04C7.01 20.70 4.03 19.01 0.54 17.76C1.54 16.45 2.02 15.58 2.72 13.76C5.06 14.78 6.43 15.49 8.38 16.74ZM11.30 18.27C10.91 18.27 10.91 18.27 10.66 18.27C12.77 19.87 14.21 21.28 15.90 23.39C17.60 21.25 18.94 19.97 21.25 18.27C20.99 18.27 20.99 18.27 20.58 18.27ZM26.30 11.94C25.70 11.78 24.90 11.74 23.10 11.74L8.35 11.74C6.88 11.74 5.60 11.81 4.22 11.94L4.22 7.55C5.73 7.68 6.98 7.74 8.32 7.74L22.08 7.74L17.31 1.82C16.38 0.70 15.71 -0.06 14.91 -0.77L19.17 -3.14C19.90 -2.02 20.38 -1.31 21.18 -0.32L27.23 7.49C27.68 8.06 28.35 8.86 28.70 9.22Z"/><path id="copy-2446" d="M9.25 1.54C9.25 0.32 9.22 -0.19 9.12 -0.90L13.12 -0.90L13.12 0.45L20.45 0.45C20.93 0.45 21.15 0.45 21.70 0.42C22.05 -0.67 22.18 -1.31 22.34 -2.50C22.94 -2.53 22.94 -2.53 23.52 -2.53C24.42 -2.56 24.42 -2.56 24.61 -2.56C26.82 -2.56 27.74 -2.37 28.54 -1.79C29.28 -1.22 29.60 -0.32 29.60 1.44L29.60 16.06C29.60 17.44 29.63 17.98 29.73 18.85C28.99 18.78 28.42 18.75 26.72 18.75L22.94 18.75C23.42 19.55 23.62 19.90 24.16 21.12L27.26 21.12C28.96 21.12 29.95 21.09 30.94 20.96L30.94 24.99C29.86 24.86 28.64 24.80 26.98 24.80L18.11 24.80L18.11 25.34C18.11 25.98 18.14 26.37 18.27 27.26L13.63 27.26C13.73 26.66 13.79 26.02 13.79 25.34L13.79 24.80L5.41 24.80C3.84 24.80 2.62 24.86 1.41 24.99L1.41 20.96C2.40 21.09 3.42 21.12 5.12 21.12L8.10 21.12C8.58 20.32 8.90 19.52 9.12 18.75L5.79 18.75C4.58 18.75 3.14 18.82 2.56 18.85C2.66 17.89 2.69 17.02 2.69 16.10L2.69 1.28C2.69 -0.51 2.62 -1.54 2.50 -2.78L6.98 -2.78C6.85 -1.57 6.82 -0.51 6.82 1.31L6.82 10.11C7.49 9.28 7.78 8.83 8.22 7.90C8.70 8.10 8.83 8.19 9.25 8.35C9.25 7.97 9.25 7.81 9.25 7.39ZM16.80 15.20L16.80 12.19C16.80 11.46 17.06 10.94 17.60 10.62C18.18 10.24 19.04 10.14 21.22 10.14C22.40 10.14 23.55 10.21 24.19 10.30C24.80 10.37 24.99 10.46 25.50 10.75L25.50 2.05C25.50 1.34 25.31 1.18 24.51 1.18C24.26 1.18 24.13 1.18 23.01 1.25C22.98 2.14 22.98 2.37 22.98 2.66L22.98 7.10C22.98 7.90 23.01 8.54 23.07 9.31C22.69 9.25 21.76 9.22 20.54 9.22L11.81 9.22C11.33 9.22 11.20 9.22 10.85 9.22C12.35 10.21 13.31 11.17 14.02 12.51C14.46 13.34 14.66 13.98 14.82 15.20ZM13.60 18.75C13.22 19.84 13.06 20.19 12.61 21.12L19.62 21.12C19.26 20.16 19.04 19.62 18.53 18.75ZM10.85 15.20C10.62 13.34 9.38 12.13 6.82 11.30L6.82 15.20ZM25.50 13.76C24.80 13.98 24.61 14.11 24.13 14.46C24.10 13.18 24.00 13.12 22.34 13.12C20.96 13.12 20.70 13.22 20.70 13.73L20.70 15.20L25.50 15.20ZM13.15 5.95L19.33 5.95L19.33 3.71L13.15 3.71Z"/><path id="copy-2557" d="M21.47 17.47L21.47 21.18C25.44 21.82 27.65 22.34 29.92 23.14C30.56 23.36 30.56 23.36 31.04 23.49L27.94 27.23C27.33 26.78 26.02 26.24 24.70 25.89C22.11 25.18 19.33 24.67 17.25 24.54C17.38 23.36 17.44 22.21 17.44 20.10C17.44 7.10 16.77 3.52 13.70 -0.51C15.26 -1.31 15.94 -1.73 17.50 -2.98C20.22 1.12 21.28 5.54 21.44 13.60L24.00 13.60L24.00 1.22C24.00 -0.77 23.97 -1.76 23.81 -2.82L28.29 -2.82C28.13 -1.79 28.10 -0.83 28.10 1.22L28.10 13.60L28.70 13.60C29.92 13.60 30.46 13.57 31.17 13.47L31.17 17.66C30.53 17.54 29.63 17.47 28.22 17.47ZM11.30 13.54L13.44 13.54C14.91 13.54 15.58 13.50 16.54 13.41L16.54 17.44C15.74 17.31 15.17 17.28 13.82 17.28C14.11 18.18 14.43 19.55 14.66 20.86C15.49 20.83 15.71 20.83 16.35 20.77L16.35 24.70C15.49 24.58 14.82 24.54 13.22 24.54L11.46 24.54L11.46 24.74C11.46 25.89 11.49 26.37 11.62 27.14L7.04 27.14C7.17 26.34 7.20 25.82 7.20 24.74L7.20 24.54L5.06 24.54C3.49 24.54 2.72 24.58 1.89 24.70L1.89 20.77C2.53 20.83 2.91 20.86 3.71 20.90C4.00 19.97 4.35 18.43 4.48 17.28C2.75 17.28 2.11 17.31 1.25 17.44L1.25 13.41C2.18 13.50 2.88 13.54 4.32 13.54L7.36 13.54L7.36 11.62L4.42 11.62C2.78 11.62 2.21 11.65 1.28 11.78L1.28 7.78C2.18 7.90 2.88 7.94 4.35 7.94L6.11 7.94C4.77 5.89 2.88 4.06 0.70 2.78C1.50 1.47 2.05 0.29 2.46 -1.22C4.83 0.45 5.89 1.60 7.42 4.10C7.39 3.39 7.36 2.66 7.36 2.11L7.36 -0.32C7.36 -1.34 7.33 -2.08 7.20 -2.78L11.46 -2.78C11.33 -2.05 11.30 -1.31 11.30 -0.16L11.30 2.40C11.30 2.88 11.30 3.36 11.23 4.70C12.29 3.26 12.58 2.94 13.89 1.76C14.40 2.98 14.98 4.16 15.65 5.44C14.27 6.34 13.50 6.98 12.67 7.94L13.28 7.94C14.75 7.94 15.49 7.90 16.38 7.81L16.38 11.78C15.55 11.65 14.82 11.62 13.28 11.62L11.30 11.62ZM8.29 17.28C8.03 19.04 7.90 19.65 7.62 20.54C7.55 20.77 7.55 20.77 7.49 20.90L10.88 20.90C10.75 19.58 10.59 18.78 10.18 17.28Z"/><path id="copy-2641" d="M8.86 20.10C9.44 18.75 9.86 17.44 10.27 15.42L11.55 16.06C11.17 15.20 10.94 14.78 10.40 13.92C12.32 12.96 12.32 12.96 14.02 11.84C13.50 11.87 13.22 11.90 12.64 11.97L12.64 7.90C13.47 8.00 14.94 8.06 16.29 8.06L18.94 8.06L18.94 2.11L14.08 2.11C12.51 2.11 11.07 2.18 10.21 2.30L10.21 -1.95C11.30 -1.82 12.54 -1.76 14.08 -1.76L26.82 -1.76C28.38 -1.76 29.60 -1.82 30.69 -1.95L30.69 2.30C29.79 2.18 28.45 2.11 26.82 2.11L23.07 2.11L23.07 8.06L25.76 8.06C27.39 8.06 28.54 8.00 29.38 7.90L29.38 11.97C28.51 11.84 27.55 11.81 25.79 11.81L23.07 11.81L23.07 16.86L26.37 16.86C27.65 16.86 28.86 16.80 29.95 16.67L29.95 20.90C29.15 20.77 28.06 20.70 26.37 20.70L23.07 20.70L23.07 23.58C23.07 25.12 23.14 25.95 23.26 27.04L18.75 27.04C18.88 25.89 18.94 25.06 18.94 23.58L18.94 20.70L16.77 20.70C16.93 21.70 17.06 22.53 17.12 23.01C17.22 23.74 17.28 24.00 17.38 24.38L13.34 25.12C13.34 24.99 13.34 24.86 13.34 24.80C13.34 23.14 12.83 19.97 12.26 18.05C11.78 19.49 11.39 20.45 10.85 21.57L8.86 20.61L8.86 23.65C8.86 25.22 8.90 25.98 9.06 27.14L4.64 27.14C4.77 26.05 4.83 25.15 4.83 23.65L4.83 1.41C4.83 -0.19 4.77 -1.57 4.64 -2.78L9.06 -2.78C8.90 -1.63 8.86 -0.64 8.86 1.12ZM18.94 16.86L18.94 11.81L15.68 11.81C15.04 11.81 14.66 11.81 14.05 11.84C15.01 13.73 15.39 14.69 15.94 16.86ZM3.33 11.49C3.94 14.08 4.22 16.64 4.29 20.51L1.66 20.86C1.66 20.58 1.66 20.35 1.66 20.22C1.66 17.66 1.34 15.17 0.67 12.51Z"/><path id="copy-2890" d="M7.68 4.45C6.94 5.15 6.66 5.47 6.24 6.08C6.34 7.23 6.37 7.74 6.40 8.42C6.40 8.96 6.40 9.02 6.46 9.47L2.88 9.98C2.91 9.60 2.94 9.38 2.94 9.12C2.94 7.74 2.78 5.89 2.53 4.80C2.14 2.94 1.54 1.44 0.61 0.10C2.34 -1.12 2.43 -1.18 3.65 -2.59C4.51 -1.15 5.02 0.10 5.57 2.14C7.04 0.35 8.86 -0.83 11.04 -1.44C13.18 -2.02 16.38 -2.24 22.24 -2.24C24.10 -2.24 29.47 -2.14 30.40 -2.08C30.62 -0.38 30.88 0.54 31.49 2.11C30.75 2.05 30.50 2.02 29.86 1.95C30.43 2.82 30.69 3.17 31.36 3.90C29.44 4.54 28.10 5.25 26.85 6.27L27.07 6.27C28.32 6.27 28.90 6.24 29.66 6.18C29.57 7.07 29.54 8.06 29.54 9.18L29.54 18.37C29.54 19.55 29.57 20.29 29.63 20.99C28.86 20.93 28.42 20.90 27.04 20.90L24.58 20.90C24.86 21.50 25.12 22.11 25.31 22.62L27.71 22.62C28.83 22.62 29.95 22.56 30.82 22.46L30.82 26.14C30.05 26.02 29.06 25.95 27.30 25.95L19.49 25.95C17.95 25.95 16.93 25.98 15.97 26.11L15.97 22.50C16.90 22.59 17.95 22.62 19.10 22.62L21.44 22.62C21.25 22.11 21.09 21.63 20.74 20.90L19.52 20.90C18.05 20.90 17.66 20.90 16.90 20.99C16.96 20.16 16.99 19.46 16.99 18.40L16.99 8.74C16.99 7.74 16.96 6.91 16.90 6.18C17.63 6.24 18.05 6.27 19.07 6.27C17.92 5.09 16.54 4.29 14.50 3.55C15.30 2.82 15.58 2.50 16.22 1.70C13.89 1.82 12.67 1.98 11.46 2.34L11.46 5.28L12.93 5.28C14.08 5.28 14.82 5.25 15.52 5.15L15.52 8.77C14.75 8.70 14.02 8.67 12.96 8.67L11.46 8.67L11.46 10.82L13.22 10.82C14.72 10.82 15.26 10.78 16.13 10.69L16.13 14.43C15.36 14.30 14.72 14.27 13.60 14.27L4.32 14.27C2.69 14.27 2.14 14.30 1.28 14.43L1.28 10.69C2.18 10.78 2.66 10.82 4.32 10.82L7.68 10.82ZM20.22 6.27L25.44 6.27L23.42 4.86C24.93 3.33 25.73 2.69 27.33 1.76C24.74 1.66 22.43 1.60 20.77 1.60C20.32 1.60 19.97 1.60 18.85 1.60C20.42 2.59 21.31 3.39 22.53 4.83ZM20.67 18.05L25.86 18.05L25.86 16.83L20.67 16.83ZM20.67 14.21L25.86 14.21L25.86 12.99L20.67 12.99ZM20.67 10.43L25.86 10.43L25.86 9.18L20.67 9.18ZM2.75 17.92C2.75 16.45 2.72 16.06 2.66 15.20C3.49 15.26 4.32 15.30 5.41 15.30L12.32 15.30C13.38 15.30 14.21 15.26 15.07 15.20C15.01 15.90 14.98 16.45 14.98 17.89L14.98 23.42C14.98 24.86 15.01 25.34 15.07 26.14C14.37 26.08 13.86 26.05 12.26 26.05L5.41 26.05C3.94 26.05 3.26 26.08 2.62 26.14C2.72 25.38 2.75 24.61 2.75 23.42ZM6.50 23.17L11.30 23.17L11.30 21.89L6.50 21.89ZM6.50 19.33L11.30 19.33L11.30 17.98L6.50 17.98Z"/><path id="copy-2899" d="M17.28 21.73C16.77 18.91 16.16 17.06 15.14 14.94C13.70 12.00 12.42 10.40 9.86 8.45C10.88 7.01 11.36 5.95 11.87 4.13C13.22 5.38 13.79 5.98 14.69 7.07L14.69 1.22C14.69 -0.67 14.62 -1.82 14.53 -2.69L18.75 -2.69L18.75 -0.96L25.25 -0.96L25.25 -2.69L29.70 -2.69C29.57 -1.47 29.50 -0.19 29.50 1.41L29.50 11.71C29.50 13.22 29.54 14.05 29.63 14.91C28.99 14.82 28.26 14.78 27.01 14.78L19.42 14.78C20.48 17.12 20.93 18.43 21.70 21.73L26.85 21.73C28.54 21.73 29.70 21.66 30.82 21.54L30.82 25.79C29.89 25.66 28.67 25.60 26.85 25.60L15.84 25.60C14.05 25.60 12.83 25.66 11.84 25.79L11.84 21.54C12.67 21.66 14.34 21.73 15.84 21.73ZM18.75 10.94L25.28 10.94L25.28 2.88L18.75 2.88ZM5.31 21.28L3.87 21.28C2.98 21.28 2.30 21.31 1.44 21.44L1.44 17.44C2.30 17.54 3.01 17.57 3.84 17.57L5.31 17.57L5.31 12.64C2.02 11.68 2.02 11.68 1.18 11.58L1.92 7.23C2.30 7.42 2.62 7.55 3.30 7.78C3.87 7.97 4.29 8.13 5.31 8.48L5.31 2.37C5.31 1.57 5.15 1.38 4.42 1.38C3.55 1.38 2.40 1.47 1.34 1.60C1.92 0.10 2.11 -0.77 2.24 -2.46C3.33 -2.53 3.84 -2.56 4.42 -2.56C8.22 -2.56 9.38 -1.76 9.38 0.86L9.38 10.05C10.46 10.50 10.91 10.69 12.64 11.42L12.61 15.30C11.01 14.62 10.53 14.43 9.38 14.02L9.38 17.57L10.94 17.57C11.55 17.57 11.97 17.54 12.67 17.47L12.67 21.38C12.10 21.31 11.55 21.28 10.98 21.28L9.38 21.28L9.38 23.65C9.38 25.34 9.41 25.98 9.57 26.98L5.12 26.98C5.25 26.11 5.31 25.18 5.31 23.62Z"/><path id="copy-3315" d="M17.09 18.78L17.09 15.94C17.09 14.75 17.54 14.05 18.56 13.66C19.39 13.38 20.42 13.28 22.72 13.28C27.04 13.28 28.38 13.47 29.25 14.27C30.08 15.01 30.37 16.06 30.62 19.30C29.25 19.49 28.13 19.81 26.78 20.38C26.75 18.30 26.66 17.60 26.37 17.34C25.98 17.02 25.25 16.93 23.20 16.93C21.41 16.93 21.12 17.02 21.12 17.76L21.12 19.39C23.84 20.16 26.27 21.06 28.19 21.98C29.89 22.78 29.89 22.78 30.62 23.10L27.81 26.59C26.69 25.73 26.18 25.41 24.77 24.70C23.33 24.00 22.66 23.74 21.12 23.23L21.12 24.38C21.12 25.60 21.15 26.18 21.28 26.91L16.93 26.91C17.06 26.14 17.09 25.38 17.09 24.19L17.09 19.30C15.71 22.08 14.72 23.78 13.31 25.76L10.27 24.32C10.88 23.23 11.04 22.94 11.52 22.02C10.02 21.86 8.70 21.73 7.58 21.66C8.38 23.04 9.31 24.74 9.66 25.54C9.92 26.05 10.05 26.27 10.27 26.72L5.89 27.36C5.47 25.50 4.70 23.71 3.42 21.47L3.01 21.47C2.85 21.47 2.72 21.47 2.69 21.47C2.30 21.47 1.63 21.50 1.09 21.54L1.50 17.38C2.05 17.47 2.82 17.54 3.62 17.60C6.21 17.76 10.85 18.27 13.15 18.62C13.38 18.08 13.50 17.76 13.86 16.90ZM21.12 9.54C21.12 10.85 21.15 11.42 21.25 12.13L16.96 12.13C17.06 11.36 17.09 10.69 17.09 9.31L17.09 0.58C17.09 -0.51 17.38 -1.09 18.14 -1.57C18.94 -2.05 20.13 -2.21 22.91 -2.21C27.26 -2.21 28.54 -1.98 29.47 -0.99C30.34 -0.10 30.62 0.93 30.85 4.35C29.28 4.64 28.38 4.90 26.98 5.54C26.91 2.98 26.85 2.46 26.56 2.08C26.24 1.63 25.57 1.50 23.71 1.50C21.63 1.50 21.12 1.70 21.12 2.43L21.12 4.93C24.48 5.79 27.01 6.75 30.82 8.58L27.94 11.97C26.14 10.62 23.81 9.57 21.12 8.83ZM2.75 0.86C2.75 -0.74 2.72 -1.63 2.56 -2.75L6.91 -2.75C6.78 -1.60 6.75 -0.64 6.75 0.90L6.75 3.81L11.42 3.81L11.42 1.79C11.42 1.38 11.17 1.25 10.43 1.25C9.92 1.25 9.15 1.34 8.58 1.47C9.02 0.03 9.25 -0.93 9.34 -2.34C10.05 -2.37 10.56 -2.40 10.88 -2.40C14.24 -2.40 15.33 -1.57 15.33 1.02L15.33 13.73C15.33 15.23 15.36 15.87 15.46 16.77C14.53 16.70 13.92 16.67 12.54 16.67L4.83 16.67C3.81 16.67 3.33 16.70 2.66 16.77C2.72 15.81 2.75 14.85 2.75 13.79ZM6.72 13.28L11.42 13.28L11.42 11.65L6.72 11.65ZM6.72 8.54L11.42 8.54L11.42 6.91L6.72 6.91Z"/><path id="copy-3516" d="M6.24 17.15C6.24 15.94 6.18 14.98 6.11 14.14C7.10 14.21 7.68 14.24 9.38 14.24L22.91 14.24C24.64 14.24 25.15 14.21 26.21 14.14C26.11 14.94 26.08 15.84 26.08 17.15L26.08 23.30C26.08 24.51 26.11 25.38 26.21 26.18C25.31 26.08 24.32 26.05 22.53 26.05L9.76 26.05C8.00 26.05 7.01 26.08 6.11 26.18C6.18 25.31 6.24 24.45 6.24 23.30ZM21.95 22.21L21.95 17.95L10.34 17.95L10.34 22.21ZM6.21 -2.72L6.21 -1.18L10.91 -1.18L10.91 -2.21L15.01 -2.21C14.94 -1.47 14.91 -0.67 14.91 0.54L14.91 9.54C14.91 11.10 14.91 11.58 14.98 12.22C14.27 12.16 13.57 12.13 12.67 12.13L5.22 12.13C3.90 12.13 3.04 12.16 2.05 12.26C2.11 11.30 2.18 10.37 2.18 9.25L2.18 0.83C2.18 -0.86 2.11 -1.66 1.98 -2.72ZM10.91 2.56L6.21 2.56L6.21 8.42L10.91 8.42ZM19.17 12.13C18.21 12.13 17.54 12.16 16.83 12.22C16.90 11.55 16.93 11.10 16.93 9.66L16.93 0.03C16.93 -1.18 16.90 -1.89 16.80 -2.72L20.90 -2.72L20.90 -1.18L25.98 -1.18L25.98 -2.72L30.24 -2.72C30.11 -1.82 30.08 -0.96 30.08 0.80L30.08 9.22C30.08 10.50 30.11 11.33 30.21 12.26C29.41 12.16 28.64 12.13 27.26 12.13ZM20.90 8.42L26.02 8.42L26.02 2.56L20.90 2.56Z"/><path id="copy-3612" d="M12.54 8.58C12.51 5.47 12.38 3.55 12.10 2.46C11.97 1.92 11.62 1.73 10.72 1.73C9.82 1.73 8.93 1.82 7.52 2.02C8.10 0.64 8.32 -0.32 8.51 -2.18C9.79 -2.27 10.59 -2.30 11.23 -2.30C14.24 -2.30 15.30 -1.76 15.84 0.16C16.32 1.76 16.64 5.86 16.64 10.05C16.64 11.36 16.67 11.78 16.74 12.42C15.84 12.32 14.91 12.26 13.66 12.26L9.34 12.26C9.41 13.02 9.41 13.34 9.44 14.94L12.51 14.94C14.40 14.94 15.62 14.91 16.74 14.82C16.67 15.55 16.64 16.16 16.64 18.34L16.64 22.72C16.64 24.42 16.67 25.02 16.80 26.27C15.78 26.18 14.78 26.14 12.67 26.14L6.05 26.14C4.13 26.14 3.01 26.18 1.86 26.27C1.98 25.02 2.02 24.29 2.02 22.59L2.02 18.56C2.02 16.83 1.98 16.03 1.86 14.78C2.91 14.91 3.49 14.91 5.31 14.94C5.25 12.22 5.12 10.69 4.70 8.64C4.03 5.12 3.01 3.20 0.64 1.15C1.95 -0.19 2.43 -0.83 3.42 -2.69C5.15 -1.02 6.08 0.19 7.04 2.14C7.97 4.00 8.48 5.70 8.93 8.58ZM6.08 22.56L12.64 22.56L12.64 18.56L6.08 18.56ZM18.75 24.99C18.88 23.97 18.91 22.85 18.91 20.99L18.91 8.93C18.91 6.78 18.88 6.11 18.75 5.15L23.07 5.15C22.94 6.18 22.91 6.98 22.91 9.02L22.91 20.99C22.91 22.88 22.94 23.94 23.07 24.99ZM25.54 26.78C25.66 25.34 25.73 23.78 25.73 22.27L25.73 2.75C25.73 2.02 25.38 1.79 24.16 1.79C23.10 1.79 21.76 1.89 19.74 2.08C20.38 0.58 20.70 -0.45 21.02 -2.18C22.34 -2.21 22.88 -2.24 23.58 -2.24C25.76 -2.24 27.30 -2.08 28.16 -1.73C29.31 -1.31 29.82 -0.16 29.82 1.98L29.82 22.27C29.82 24.16 29.89 25.38 30.02 26.78Z"/><path id="copy-45" d="M16.29 -0.67C18.30 -0.67 20.10 -0.77 21.02 -0.90L21.02 4.29C19.62 4.13 18.50 4.06 16.29 4.06L7.71 4.06L7.71 20.48C7.71 22.98 7.74 23.39 7.97 25.34L2.14 25.34C2.34 23.87 2.40 22.62 2.40 20.42L2.40 3.68C2.40 1.66 2.34 0.42 2.14 -0.77C3.33 -0.70 4.51 -0.67 6.50 -0.67Z"/><path id="copy-49" d="M7.90 -0.67C7.71 0.61 7.65 1.98 7.65 3.81L7.65 8.54L13.25 8.54C16.35 8.54 18.72 9.34 20.35 11.01C21.86 12.51 22.62 14.62 22.62 17.18C22.62 19.58 21.89 21.60 20.54 22.94C18.94 24.54 16.58 25.34 13.34 25.34L6.53 25.34C4.64 25.34 3.58 25.38 2.14 25.44C2.34 23.90 2.40 22.69 2.40 21.06L2.40 3.74C2.40 1.92 2.34 0.64 2.14 -0.67ZM7.65 13.06L7.65 20.83L13.12 20.83C14.56 20.83 15.55 20.51 16.22 19.78C16.86 19.14 17.18 18.18 17.18 17.02C17.18 14.50 15.71 13.06 13.12 13.06Z"/><path id="copy-634" d="M0.96 4.77C3.94 2.37 5.82 0.45 8.19 -2.69L12.00 0.93C9.41 4.03 7.49 5.86 4.45 8.13Z"/><path id="copy-635" d="M7.23 8.93C4.03 8.93 1.41 6.30 1.41 3.10C1.41 -0.10 4.03 -2.72 7.23 -2.72C10.46 -2.72 13.06 -0.13 13.06 3.10C13.06 6.34 10.46 8.93 7.23 8.93ZM7.23 5.76C8.70 5.76 9.89 4.58 9.89 3.10C9.89 1.63 8.70 0.45 7.23 0.45C5.76 0.45 4.58 1.63 4.58 3.10C4.58 4.58 5.76 5.76 7.23 5.76Z"/><path id="copy-845" d="M2.98 23.90C3.07 23.17 3.07 22.91 3.10 21.76C3.30 12.06 3.74 8.00 5.06 4.74C6.40 1.41 8.29 -0.29 10.62 -0.29C13.57 -0.29 15.65 2.56 17.34 8.83C15.52 10.11 14.88 10.72 13.57 12.29C13.18 10.27 12.64 8.35 11.87 6.59C11.52 5.73 11.14 5.28 10.72 5.28C9.09 5.28 7.90 10.94 7.90 18.59C7.90 20.80 8.00 22.62 8.19 23.87ZM19.04 20.67C21.02 18.21 22.56 15.49 23.65 12.48C24.77 9.44 25.47 5.98 25.60 2.91L30.43 4.70C29.57 11.97 27.23 17.66 23.14 22.59Z"/><path id="copy-849" d="M7.94 22.14C12.32 21.09 15.07 20.74 21.89 20.38L22.56 24.67C17.25 24.74 13.06 25.25 9.25 26.34ZM5.47 13.28C6.43 13.44 7.55 13.57 9.18 13.70C13.34 14.05 14.82 14.21 16.32 14.50C15.39 13.66 14.98 13.28 13.89 12.22C7.94 6.59 4.06 3.20 2.02 1.82L5.57 -2.21C6.72 -0.80 8.29 0.90 9.89 2.46C12.48 4.99 13.89 5.89 15.30 5.89C15.87 5.89 16.35 5.63 16.58 5.25C16.74 4.90 16.80 4.45 16.90 3.30C16.99 1.31 17.12 0.70 17.60 -0.03C18.46 -1.44 20.00 -2.05 22.75 -2.05C24.32 -2.05 25.54 -1.95 27.49 -1.66C29.31 -1.38 29.82 -1.31 30.37 -1.31L29.89 3.42C28.03 2.66 25.70 2.18 23.58 2.18C21.73 2.18 21.31 2.59 21.15 4.74C20.96 6.75 20.93 6.94 20.61 7.58C20.06 8.67 19.07 9.22 17.73 9.22C17.12 9.22 16.77 9.15 16.06 8.90C16.45 9.18 16.58 9.31 17.06 9.70C17.38 9.98 17.60 10.18 17.79 10.34C19.36 11.71 19.46 11.78 21.38 13.54C23.17 15.20 23.42 15.42 24.03 15.81L21.54 19.04C20.93 18.78 20.26 18.66 18.78 18.50C13.66 17.98 10.27 17.79 7.07 17.79C6.50 17.79 6.08 17.82 5.18 17.89Z"/><path id="copy-858" d="M11.78 14.82C11.97 14.82 12.13 14.82 12.22 14.82C12.61 14.82 12.74 14.82 13.76 14.75C14.91 14.72 15.97 14.69 17.22 14.69C18.53 14.69 19.42 14.72 20.80 14.78C20.86 13.82 20.86 13.57 20.86 13.02C20.86 8.54 20.26 6.24 18.56 4.32C17.28 2.91 15.84 1.89 13.66 0.93C15.39 -0.35 16.03 -0.96 17.38 -2.69C20.19 -1.02 21.89 0.45 23.17 2.46C24.77 5.02 25.34 7.87 25.34 13.38C25.34 13.98 25.34 14.59 25.31 15.20C26.56 15.33 26.98 15.42 28.26 15.68C29.54 15.94 29.54 15.94 30.08 16.00L29.82 20.51C28.77 20.03 27.36 19.68 25.18 19.36C25.15 20.06 25.15 20.35 25.15 21.06C25.12 22.21 25.12 22.21 25.06 23.26C25.02 24.35 25.02 24.35 25.02 24.74C25.02 25.15 25.02 25.34 25.09 25.89L20.26 25.82C20.51 24.29 20.51 24.29 20.70 18.94C19.74 18.85 18.72 18.82 17.57 18.82C15.07 18.82 13.34 18.94 11.81 19.23ZM4.93 25.47C4.93 24.70 4.90 24.32 4.70 23.04C3.74 16.22 3.58 14.53 3.58 11.01C3.58 7.23 3.90 4.16 4.74 0.16C4.86 -0.45 4.90 -0.64 4.96 -1.12L9.34 -0.93C9.47 1.57 11.10 6.08 13.18 9.66L9.82 11.30C8.86 9.31 8.42 8.16 8.00 6.62C7.94 7.42 7.90 8.61 7.90 9.44C7.90 15.20 8.64 20.90 9.95 25.06Z"/><path id="copy-866" d="M2.08 17.95C4.83 18.34 8.99 18.56 16.61 18.78C16.61 16.99 16.61 16.99 16.61 16.83C16.64 16.45 16.64 16.45 16.64 16.32C15.90 16.77 14.88 17.02 13.63 17.02C9.66 17.02 6.85 14.53 6.85 11.04C6.85 9.22 7.55 7.78 8.99 6.66C10.11 5.82 11.39 5.38 12.83 5.38C14.85 5.38 16.22 5.92 17.34 7.17C17.12 6.14 16.61 5.38 15.62 4.54C14.02 3.17 11.78 2.30 8.38 1.73C9.70 0.29 10.11 -0.42 11.04 -2.59C13.89 -1.73 15.52 -1.02 17.12 0.03C20.48 2.21 22.18 5.18 22.18 8.86C22.18 10.69 21.82 12.10 20.99 13.70C20.99 14.08 20.99 14.30 20.99 14.43L21.02 17.06L21.02 18.11L20.99 18.85C22.62 18.88 22.88 18.88 24.58 18.88C28.00 18.88 28.77 18.85 30.14 18.75L30.11 23.17C28.83 23.04 26.37 22.98 20.96 22.94C20.99 25.06 20.99 25.12 21.15 26.50L16.32 26.50C16.48 25.41 16.48 25.25 16.54 22.85C7.52 22.59 4.32 22.50 3.62 22.50C3.04 22.50 2.72 22.50 1.95 22.56ZM14.11 13.54C15.62 13.54 16.61 12.74 16.61 11.58C16.61 10.24 15.39 9.18 13.82 9.18C12.42 9.18 11.39 10.08 11.39 11.30C11.39 12.58 12.54 13.54 14.11 13.54Z"/><path id="copy-872" d="M2.72 17.12C3.01 17.12 3.10 17.15 3.33 17.15L6.75 17.06L7.65 17.06C6.53 11.23 4.19 4.26 2.05 0.13L6.98 -1.70C7.14 -1.12 7.39 -0.38 7.71 0.51C9.18 4.74 9.54 5.79 10.50 9.28C11.39 12.42 11.84 14.46 12.35 17.22C14.05 17.31 15.46 17.44 16.86 17.70C18.02 17.89 18.02 17.89 18.62 17.95L18.46 22.34C16.80 21.92 15.39 21.66 13.12 21.44C13.22 22.08 13.25 22.14 13.38 23.01C13.79 25.34 13.79 25.34 14.02 26.11L8.96 26.53C8.96 26.27 8.96 26.08 8.96 25.98C8.96 25.09 8.70 22.85 8.42 21.25C7.62 21.22 7.58 21.22 7.36 21.22C5.44 21.22 3.97 21.31 2.78 21.54ZM28.64 17.06C26.62 17.09 26.50 17.09 25.70 17.09C21.98 17.09 20.38 16.93 15.62 16.06L15.94 11.87C19.14 12.51 21.25 12.74 24.61 12.74C26.27 12.74 27.20 12.67 28.74 12.51ZM15.62 10.14C13.82 7.68 13.15 6.05 13.15 4.32C13.15 2.59 14.05 0.99 15.52 0.16C17.12 -0.80 19.20 -1.22 22.14 -1.22C24.00 -1.22 25.60 -1.09 28.26 -0.67C29.06 -0.58 29.31 -0.54 29.89 -0.48L29.57 4.26C27.71 3.55 24.64 3.01 22.40 3.01C19.30 3.01 17.82 3.74 17.82 5.25C17.82 6.30 18.18 7.07 19.46 8.77Z"/><path id="copy-873" d="M20.32 24.35C21.31 23.01 22.05 21.70 22.82 19.81L25.70 20.96C24.86 22.91 24.22 24.00 23.14 25.41ZM24.26 25.76C25.22 24.42 25.92 23.20 26.72 21.34L29.54 22.53C28.83 24.13 28.00 25.50 26.98 26.75ZM2.53 16.86C2.82 16.86 2.91 16.86 3.14 16.86L6.56 16.80L7.46 16.80C6.34 10.98 4.00 3.97 1.86 -0.13L6.78 -1.95C6.94 -1.41 7.20 -0.67 7.52 0.26C8.99 4.48 9.34 5.54 10.30 9.02C11.20 12.13 11.65 14.18 12.16 16.93C13.86 17.02 15.26 17.18 16.67 17.44C17.82 17.63 17.82 17.63 18.43 17.70L18.27 22.08C16.61 21.63 15.20 21.41 12.93 21.18C13.02 21.82 13.06 21.89 13.18 22.75C13.60 25.09 13.60 25.09 13.82 25.82L8.77 26.24C8.77 26.02 8.77 25.82 8.77 25.70C8.77 24.83 8.51 22.56 8.22 20.96C7.42 20.96 7.39 20.96 7.17 20.96C5.25 20.96 3.78 21.06 2.59 21.28ZM28.45 16.80C26.43 16.83 26.30 16.83 25.50 16.83C21.79 16.83 20.19 16.67 15.42 15.81L15.74 11.58C18.94 12.26 21.06 12.48 24.42 12.48C26.08 12.48 27.01 12.42 28.54 12.26ZM15.42 9.89C13.63 7.42 12.96 5.79 12.96 4.06C12.96 2.34 13.86 0.74 15.33 -0.10C16.93 -1.06 19.01 -1.47 21.95 -1.47C23.81 -1.47 25.41 -1.34 28.06 -0.96C28.86 -0.83 29.12 -0.80 29.70 -0.74L29.38 4.00C27.52 3.30 24.45 2.75 22.21 2.75C19.10 2.75 17.63 3.49 17.63 4.99C17.63 6.05 17.98 6.82 19.26 8.51Z"/><path id="copy-880" d="M27.17 12.99C26.30 14.88 25.60 15.97 24.48 17.31L21.76 16.10C22.88 14.62 23.62 13.44 24.42 11.65ZM30.88 14.75C29.86 16.77 29.41 17.47 28.22 18.85L25.57 17.70C26.66 16.29 27.36 15.10 28.16 13.41ZM2.37 17.86C3.58 18.08 5.31 18.30 7.07 18.43C14.21 18.98 14.34 19.01 17.54 19.36C13.09 16.80 10.78 13.28 10.78 8.96C10.78 5.31 12.51 2.53 15.84 0.80C17.76 -0.22 20.00 -0.77 23.58 -1.18C24.16 -1.25 24.29 -1.25 24.70 -1.34L25.38 3.84C24.99 3.81 24.77 3.81 24.58 3.81C23.39 3.81 21.31 4.13 19.84 4.54C17.15 5.31 15.68 7.04 15.68 9.41C15.68 12.32 17.86 15.30 21.47 17.34C23.62 18.56 26.21 19.30 28.29 19.30C28.58 19.30 28.67 19.30 29.06 19.26L28.80 24.16C28.22 24.03 28.03 24.00 25.22 23.87C16.42 23.49 10.91 23.23 8.70 23.07C4.16 22.78 3.97 22.78 3.36 22.78C3.23 22.78 2.85 22.78 2.11 22.82Z"/><path id="copy-883" d="M9.31 26.62C9.28 25.25 9.02 23.68 8.45 21.28C7.84 21.25 7.23 21.22 7.04 21.22C5.12 21.22 3.71 21.31 2.56 21.54L2.56 17.18C3.52 17.18 3.65 17.18 3.78 17.18C4.86 17.12 4.86 17.12 5.22 17.12C5.28 17.12 5.44 17.12 5.60 17.12C6.37 17.15 6.37 17.15 7.33 17.15C5.79 12.29 3.62 7.81 1.31 4.77L5.70 2.34C5.89 2.75 5.89 2.75 6.30 3.55C7.52 5.86 7.81 6.43 8.54 8.00C10.02 11.17 10.78 13.25 12.03 17.28C14.59 17.50 15.90 17.63 17.02 17.79C17.54 17.89 17.66 17.89 18.02 17.92L17.92 22.34C16.77 21.95 15.17 21.70 13.09 21.50C13.15 21.82 13.15 21.82 13.28 22.30C13.50 23.42 13.66 24.13 13.73 24.42C14.05 25.82 14.05 25.82 14.18 26.14ZM30.62 18.56C27.71 20.29 25.15 21.47 21.31 22.85L19.04 19.14C22.75 17.86 25.66 16.48 28.58 14.59ZM30.43 4.03C30.18 4.22 30.18 4.22 29.89 4.45C29.34 4.90 29.06 5.12 28.64 5.41C27.07 6.59 25.82 7.30 23.81 8.19C23.58 9.95 23.52 11.07 23.52 12.51C23.52 13.82 23.58 14.40 23.94 15.68L19.49 15.90C19.30 14.72 19.23 13.79 19.23 12.35C19.23 11.42 19.26 10.53 19.39 9.25C18.53 9.38 17.98 9.44 17.06 9.44C15.58 9.44 14.59 9.31 13.63 8.96C11.10 8.06 9.57 6.02 9.57 3.58C9.57 0.16 12.45 -2.11 16.83 -2.11C19.46 -2.11 21.63 -1.31 22.75 0.06C23.52 1.02 23.81 1.98 23.84 3.49C25.60 2.43 27.39 0.96 28.38 -0.26ZM19.49 5.18C19.52 5.18 19.55 4.58 19.55 4.29C19.55 2.72 18.62 1.92 16.70 1.92C15.01 1.92 14.02 2.62 14.02 3.78C14.02 4.90 15.20 5.66 16.96 5.66C17.86 5.66 18.50 5.54 19.49 5.18Z"/><path id="copy-884" d="M4.96 25.79C4.86 24.86 4.83 24.58 4.45 22.59C3.58 17.92 3.20 14.05 3.20 10.08C3.20 6.98 3.42 4.38 4.03 0.32C4.13 -0.42 4.16 -0.67 4.19 -1.25L8.83 -1.02C8.80 -0.58 8.80 -0.42 8.80 -0.10C8.80 2.43 9.73 5.82 11.42 9.54L8.61 10.69L8.00 9.15C7.84 8.77 7.84 8.77 7.42 7.52C7.52 14.30 8.54 21.50 9.95 25.31ZM12.86 18.05C13.34 18.02 13.60 18.02 13.76 17.98C15.74 17.79 16.90 17.73 18.91 17.73C21.57 17.73 24.77 17.95 27.39 18.30C27.74 18.34 27.78 18.34 28.06 18.34L27.84 22.98C25.79 22.43 22.59 22.11 19.07 22.11C16.16 22.11 14.50 22.24 12.93 22.66ZM14.98 13.28C12.99 10.75 12.00 8.45 12.00 6.43C12.00 5.25 12.35 4.03 12.96 3.17C14.40 1.15 17.06 0.19 21.12 0.19C23.33 0.19 25.02 0.35 27.84 0.80C28.54 0.90 28.74 0.93 29.25 0.99L28.93 5.82C26.72 5.02 23.94 4.58 21.15 4.58C18.21 4.58 16.58 5.47 16.58 7.07C16.58 8.26 17.31 9.70 18.82 11.58Z"/><path id="copy-887" d="M18.88 20.19C20.16 20.03 20.93 19.78 21.86 19.17C24.03 17.73 25.28 15.33 25.28 12.48C25.28 9.09 23.62 6.11 20.86 4.61C19.36 3.81 17.38 3.30 14.53 3.07C15.78 1.41 16.22 0.54 16.90 -1.47C19.17 -1.09 20.45 -0.77 21.98 -0.16C27.10 1.86 30.02 6.37 30.02 12.19C30.02 19.68 24.90 24.48 16.86 24.48C12.29 24.48 8.35 22.88 5.60 19.87C3.26 17.34 2.02 14.02 2.02 10.37C2.02 4.86 4.83 0.99 8.80 0.99C11.55 0.99 13.66 2.88 15.46 6.94C17.12 10.66 18.24 14.91 18.88 20.19ZM14.21 20.13C13.82 16.70 12.83 12.67 11.65 9.82C10.62 7.23 9.63 5.98 8.70 5.98C7.46 5.98 6.43 7.94 6.43 10.34C6.43 13.54 7.94 16.64 10.37 18.53C11.62 19.49 12.67 19.94 14.21 20.13Z"/><path id="copy-906" d="M5.66 24.35C5.86 23.84 5.92 23.62 6.02 23.23C6.62 20.32 6.98 18.69 7.10 18.27C3.78 15.68 1.98 12.19 1.98 8.26C1.98 3.65 4.38 0.54 7.97 0.54C10.43 0.54 12.77 2.08 15.23 5.34C17.44 8.22 19.36 12.22 20.86 16.90C23.87 15.87 25.34 13.98 25.34 11.10C25.34 6.21 21.63 3.36 14.59 2.88C16.06 0.96 16.42 0.26 16.96 -1.70C19.39 -1.22 20.80 -0.80 22.46 -0.13C27.30 1.89 30.08 5.82 30.08 10.72C30.08 14.05 28.77 16.80 26.30 18.75C25.02 19.71 23.90 20.26 21.98 20.80C22.14 21.28 22.59 22.91 22.98 24.42C23.04 24.70 23.14 24.93 23.30 25.34L18.53 26.27C18.46 25.12 18.30 24.13 17.63 21.41C17.31 21.44 17.02 21.44 16.86 21.44C14.82 21.44 12.74 21.02 11.01 20.26C10.62 21.92 10.34 23.87 10.27 25.22ZM8.29 13.63C9.02 10.78 9.47 9.50 10.72 6.82C9.82 5.70 8.99 5.12 8.19 5.12C6.98 5.12 6.21 6.46 6.21 8.54C6.21 10.30 6.94 12.13 8.29 13.63ZM11.81 16.29C13.38 17.12 14.56 17.41 16.51 17.44C15.68 14.75 15.17 13.54 13.63 10.66C12.64 13.25 12.45 13.86 11.81 16.29Z"/><path id="copy-916" d="M6.43 20.45C7.39 20.58 7.68 20.58 8.70 20.64C13.41 20.86 13.95 20.90 16.58 21.12C12.06 16.61 5.38 11.30 2.37 9.86L4.93 5.73C8.90 9.28 13.28 11.10 17.98 11.10C21.66 11.10 24.03 9.60 24.03 7.26C24.03 5.25 23.10 4.03 20.83 3.10C20.35 4.42 20.00 5.09 19.36 5.86C18.02 7.52 16.00 8.45 13.73 8.45C10.34 8.45 7.84 6.37 7.84 3.62C7.84 2.05 8.54 0.64 9.79 -0.29C11.14 -1.31 13.50 -1.89 16.29 -1.89C19.36 -1.89 22.18 -1.22 24.32 0.03C27.20 1.70 28.70 4.19 28.70 7.30C28.70 9.54 27.94 11.30 26.37 12.61C24.64 14.05 22.40 14.78 19.68 14.78C17.82 14.78 16.22 14.56 14.40 14.02C16.99 15.84 18.02 16.67 21.34 19.65C23.84 21.86 23.87 21.86 24.54 22.24L22.27 25.57C21.73 25.31 21.34 25.25 20.10 25.15C17.12 24.93 13.15 24.77 10.40 24.77C8.48 24.77 7.42 24.83 6.24 24.99ZM16.74 1.95C16.00 1.79 15.87 1.79 15.39 1.79C13.31 1.79 12.10 2.43 12.10 3.55C12.10 4.32 12.74 4.83 13.70 4.83C15.20 4.83 16.26 3.84 16.74 1.95Z"/><path id="copy-923" d="M3.23 19.04C3.42 19.07 3.58 19.07 3.71 19.07C3.71 19.07 3.90 19.07 4.16 19.07C4.22 19.04 4.42 19.04 4.70 19.04C4.80 19.04 5.31 19.04 5.92 19.01C6.85 18.98 7.10 18.98 8.90 18.98C8.74 18.75 8.70 18.72 8.42 18.18C6.75 15.33 3.97 12.00 2.18 10.69L5.63 7.26C6.43 8.32 7.23 9.18 8.54 10.34C10.94 12.42 13.12 13.50 14.85 13.50C15.78 13.50 16.32 13.09 16.48 12.22C14.27 11.26 12.86 10.53 11.81 9.76C9.38 8.00 8.10 6.02 8.10 4.03C8.10 2.72 8.54 1.47 9.34 0.58C10.82 -1.09 13.47 -1.79 18.18 -1.79C20.86 -1.79 23.71 -1.60 26.40 -1.22C27.26 -1.09 27.39 -1.09 28.00 -1.06L27.65 3.84C25.15 2.91 21.70 2.40 17.82 2.40C14.34 2.40 12.96 2.98 12.96 4.45C12.96 5.25 13.47 6.05 14.46 6.75C15.07 7.17 15.71 7.52 17.02 8.13C17.06 8.00 17.06 7.90 17.06 7.87C17.06 6.18 16.99 4.77 16.86 4.16L21.31 4.29C21.25 4.93 21.22 5.47 21.22 6.43C21.22 6.62 21.22 6.85 21.22 7.10C21.22 7.58 21.22 7.90 21.22 8.03L21.22 8.61L21.18 9.66C25.06 10.98 25.06 10.98 25.82 11.17C27.46 11.65 28.51 11.87 29.44 12.00L27.74 16.35C27.20 16.03 27.07 16.00 25.25 15.39C23.81 14.91 23.65 14.85 22.40 14.40C21.57 14.11 20.99 13.92 20.70 13.82C20.13 15.97 18.53 17.06 15.94 17.06C14.34 17.06 13.18 16.74 11.52 15.81C12.54 17.18 12.99 17.86 13.60 18.98C16.83 19.07 20.99 19.33 23.33 19.62C24.86 19.78 24.86 19.78 25.86 19.87L25.66 24.19C23.84 23.71 21.22 23.36 17.41 23.14C16.00 23.07 15.90 23.07 15.42 23.01C15.55 23.26 15.55 23.30 15.68 23.58C16.64 25.89 16.64 25.89 16.86 26.24L11.90 26.69C11.78 25.63 11.55 24.86 10.75 22.94C10.62 22.94 10.46 22.94 10.43 22.94C10.30 22.94 10.14 22.94 9.79 22.94C9.57 22.94 9.34 22.94 9.15 22.94C6.53 22.94 4.48 23.07 3.30 23.36Z"/></defs>
<rect width="100%" height="100%" fill="url(#ground)"/><rect width="100%" height="100%" fill="url(#dots)"/>
<g fill="#fff" opacity=".105" transform="rotate(-8 475 75)"><use href="#bg-49" transform="translate(180.50 119.29) scale(1 -1)"/><use href="#bg-40" transform="translate(264.54 119.29) scale(1 -1)"/><use href="#bg-58" transform="translate(342.19 119.29) scale(1 -1)"/><use href="#bg-48" transform="translate(484.47 119.29) scale(1 -1)"/><use href="#bg-36" transform="translate(581.47 119.29) scale(1 -1)"/><use href="#bg-53" transform="translate(665.50 119.29) scale(1 -1)"/><use href="#bg-46" transform="translate(749.54 119.29) scale(1 -1)"/><use href="#bg-40" transform="translate(833.58 119.29) scale(1 -1)"/><use href="#bg-55" transform="translate(911.23 119.29) scale(1 -1)"/></g><g fill="#fff16a"><use href="#copy-2446" transform="translate(163.77 62.66) scale(1 -1)"/><use href="#copy-3516" transform="translate(195.77 62.66) scale(1 -1)"/><use href="#copy-887" transform="translate(227.77 62.66) scale(1 -1)"/><use href="#copy-1348" transform="translate(259.77 62.66) scale(1 -1)"/><use href="#copy-3315" transform="translate(291.77 62.66) scale(1 -1)"/><use href="#copy-2641" transform="translate(323.77 62.66) scale(1 -1)"/><use href="#copy-923" transform="translate(355.77 62.66) scale(1 -1)"/><use href="#copy-634" transform="translate(387.77 62.66) scale(1 -1)"/><use href="#copy-2067" transform="translate(419.77 62.66) scale(1 -1)"/><use href="#copy-887" transform="translate(451.77 62.66) scale(1 -1)"/><use href="#copy-1728" transform="translate(483.77 62.66) scale(1 -1)"/><use href="#copy-1412" transform="translate(515.77 62.66) scale(1 -1)"/><use href="#copy-873" transform="translate(547.77 62.66) scale(1 -1)"/><use href="#copy-858" transform="translate(579.77 62.66) scale(1 -1)"/><use href="#copy-880" transform="translate(611.77 62.66) scale(1 -1)"/><use href="#copy-1854" transform="translate(643.77 62.66) scale(1 -1)"/><use href="#copy-906" transform="translate(675.77 62.66) scale(1 -1)"/><use href="#copy-883" transform="translate(707.77 62.66) scale(1 -1)"/><use href="#copy-845" transform="translate(739.77 62.66) scale(1 -1)"/><use href="#copy-635" transform="translate(771.77 62.66) scale(1 -1)"/></g><g fill="#72c7dc"><use href="#copy-3612" transform="translate(78.73 112.66) scale(1 -1)"/><use href="#copy-887" transform="translate(110.73 112.66) scale(1 -1)"/><use href="#copy-1728" transform="translate(142.73 112.66) scale(1 -1)"/><use href="#copy-1412" transform="translate(174.73 112.66) scale(1 -1)"/><use href="#copy-887" transform="translate(206.73 112.66) scale(1 -1)"/><use href="#copy-1373" transform="translate(238.73 112.66) scale(1 -1)"/><use href="#copy-2890" transform="translate(270.73 112.66) scale(1 -1)"/><use href="#copy-884" transform="translate(302.73 112.66) scale(1 -1)"/><use href="#copy-1312" transform="translate(334.73 112.66) scale(1 -1)"/><use href="#copy-849" transform="translate(366.73 112.66) scale(1 -1)"/><use href="#copy-916" transform="translate(397.77 112.66) scale(1 -1)"/><use href="#copy-45" transform="translate(429.77 112.66) scale(1 -1)"/><use href="#copy-49" transform="translate(450.98 112.66) scale(1 -1)"/><use href="#copy-880" transform="translate(474.54 112.66) scale(1 -1)"/><use href="#copy-634" transform="translate(505.58 112.66) scale(1 -1)"/><use href="#copy-2557" transform="translate(537.58 112.66) scale(1 -1)"/><use href="#copy-872" transform="translate(569.58 112.66) scale(1 -1)"/><use href="#copy-883" transform="translate(601.58 112.66) scale(1 -1)"/><use href="#copy-1936" transform="translate(633.58 112.66) scale(1 -1)"/><use href="#copy-1644" transform="translate(665.58 112.66) scale(1 -1)"/><use href="#copy-923" transform="translate(697.58 112.66) scale(1 -1)"/><use href="#copy-1417" transform="translate(729.58 112.66) scale(1 -1)"/><use href="#copy-2899" transform="translate(761.58 112.66) scale(1 -1)"/><use href="#copy-866" transform="translate(793.58 112.66) scale(1 -1)"/><use href="#copy-916" transform="translate(825.58 112.66) scale(1 -1)"/><use href="#copy-635" transform="translate(857.58 112.66) scale(1 -1)"/></g></svg>