<svg xmlns="http://www.w3.org/2000/svg" width="640.67" height="135.88" viewBox="0 0 640.67 135.88">
  <g>
    <g>
      <path d="M118.9,27.74c.42.05.73.2.73.57,0,.83-1.09.93-1.61.93-1.66,15.53-13.45,18.49-17.35,19.38a14.53,14.53,0,0,0-4.83-6.55c10.7-2.18,14.28-5.5,14.39-15.42ZM143.26,4.47v6.28H123.68v1.61h14.23v6H101.4v-6h14.18V10.75H96.1V4.47h19.48V0L124,.31c.31,0,.78.16.78.63s-.57.72-1.09,1v2.5Zm-.47,15.37V30.7h-7.94V25.87H104.72V31h-8.1V19.84ZM127.32,46.9c-2.24,0-6.39,0-6.39-6.07V27l7.74.16c.46,0,1.19,0,1.19.67,0,.47-.15.52-1.19,1v9c0,1.92.46,2.29,1.61,2.29h3.32c1.82,0,2.39-.73,2.65-2.18.21-1.2.47-3.22.68-4.47,2.44,1.92,4.83,3.32,7.16,3.43-.52,4.57-1.14,10-7.68,10Z" style="fill: #fff"/>
      <path d="M173.37,13.56c4-3.9,8.36-5.3,10.65-5.3,1.5,0,6.59,1.09,6.59,8.1,0,1.72-.05,2.08-1.29,10.65a44.59,44.59,0,0,0-.42,5.92c0,.68,0,2.44,1.35,2.44.62,0,2.81-.36,6.55-4.47.72,3.12.88,3.59,2.8,8.06-4.67,4.51-8.67,5.5-11,5.5-2.91,0-7.84-1.87-7.84-9.4,0-2.6,1.4-14.75,1.4-16.26a1.53,1.53,0,0,0-1.61-1.71c-3.17,0-7.64,5.3-11,9.19a166.58,166.58,0,0,0,1,20.47l-9.08.41a73.57,73.57,0,0,0,.46-8.93V36.1c-.72,1-3.68,5.71-4.41,6.54l-6.34-6.39c7.43-8.15,10-11.89,10.91-13.29,0-.52.05-1.3.05-2a42,42,0,0,1-8.26,1.87l-1.71-8.77a35.85,35.85,0,0,0,10.18-1.56c.1-3.53.15-10.44,0-12.26L170,.88c.57.06,1.46.16,1.46.89,0,.57-.68.67-1,.77-.42,4.11-.52,6.19-.57,7.69Z" style="fill: #fff"/>
      <path d="M241.41,6.13c-3.54,2.34-11.59,10.39-12.73,11.58a28,28,0,0,1,6.23-.78c7.07,0,14.34,4.47,14.34,13.66C249.25,42,238.39,47,229.41,47c-6.7,0-13.2-2.65-13.2-8.94,0-5.14,4.78-8.31,10.18-8.31,4.89,0,10,2.76,11.17,7.64C241,35.68,241,31.68,241,31.27c0-1.25-.42-7.58-8.47-7.58-8.77,0-13.76,5.14-21,12.67l-6.23-6.08c6-4.15,17.55-15.58,21-20.2-1.66.36-3.43.78-13.81,1.81l-1.25-8.15c2,0,17,.21,26-3.27ZM225.77,36.25c-1.77,0-2.18,1-2.18,1.87,0,2,2.91,2.76,4.67,2.76a8.44,8.44,0,0,0,2.6-.42A5.1,5.1,0,0,0,225.77,36.25Z" style="fill: #fff"/>
      <path d="M262.1,11.43V3.64h26.54a14.39,14.39,0,0,0,3.58-.42l4,4.42a16,16,0,0,0-2,3.32,89.23,89.23,0,0,1-6.6,12.73c2.19,1.66,11.69,9.55,15.59,14.23-1.72,2-4.52,5.09-6.24,7.06a70.87,70.87,0,0,0-14-14.8c-5,6-13.14,12.67-19.94,15.53a23.32,23.32,0,0,0-5.93-7.12A43.66,43.66,0,0,0,274.1,28.2c5.92-5.71,8-10.8,10.38-16.77Z" style="fill: #fff"/>
      <path d="M329.1,14.34c7.69,3.89,14.28,8.36,18.13,12.2-2.34,3.38-2.6,3.74-4.89,7.27a76.47,76.47,0,0,0-16.2-11.53V46.64h-8.78V.78l8.78.41c.36,0,1,.06,1,.58s-.57.72-1,.83V18.49Z" style="fill: #fff"/>
      <path d="M402.43,19.53v8.83H357.29V19.53Z" style="fill: #fff"/>
      <path d="M423.87,1.82c.62,0,1,.05,1,.52s-.62.83-1,1v25.4h-8.68V1.56ZM447.65.88c.52,0,1,.11,1,.52,0,.63-.62.89-1,1V19.37c0,5.67-1,11.38-4.15,16.05-2.86,4.21-8.62,9.82-15.74,12a15,15,0,0,0-5.4-6.65c16.26-5.66,16.57-16.05,16.57-21.34V.57Z" style="fill: #fff"/>
      <path d="M505.69,19.53v8.83H460.55V19.53Z" style="fill: #fff"/>
      <path d="M547.72,18.28c-9.53-.16-17.79,8.41-17.79,14.66,0,4.48,5.67,6.68,10.92,6.79a50.82,50.82,0,0,0-2.89,7c-3.13-.85-14.21-3.94-14.21-13.16,0-7.14,5.52-12.27,7.1-13.28a105.34,105.34,0,0,0-16,2.43L514,15.5a124.63,124.63,0,0,0,17.17-.89,92.77,92.77,0,0,0,15.48-2.82Zm-6.41,5.48a23.53,23.53,0,0,1,3.59,4.13c-1.08.77-1.62,1.19-3,2.31a32,32,0,0,0-3.43-4.36ZM545.36,21a23.65,23.65,0,0,1,3.44,4.05c-1,.73-1.62,1.31-2.82,2.39a29.12,29.12,0,0,0-3.43-4.36Z" style="fill: #fff"/>
      <path d="M29.24,86.68c1.35,0,1.35.67,1.35.93a2.36,2.36,0,0,1-.15.73c4.36,5.09,12,10.13,21,13.3a22,22,0,0,0-4.67,6.18c-1.25-.47-13-5-21.61-14.91A54.2,54.2,0,0,1,5,108.34a16.83,16.83,0,0,0-5-6c6.91-2.7,15.79-8,20.67-16Zm19.32,40.1v6.75H2.49v-6.75H9.56v-17.3l7.84.42c.36,0,1.14.15,1.14.77s-.62.78-1.14.94v15.17h5.14V99l7.12.31c.67,0,1,.31,1,.68s-.11.46-1,1v9.51H41.6v7.37H29.66v8.89Z" style="fill: #fff"/>
      <path d="M83.91,134.72H76.84v-9c-5,4.15-11.63,7.89-14.59,8.83-2.55-3.38-4-4.26-5.4-5.14A49.44,49.44,0,0,0,72,121.12H56.85V115.4h20v-1.56h-14V108.6h14v-1.46H59.34v-5.55h9.87c-.26-.63-1-2.29-1.14-2.5H56.85V93.38h6.33c-.83-1.56-1.24-2.23-2-3.38l6-3.63c1.25,2,2.76,4.83,3.28,5.87l-2.13,1.14h3.58V87.09l6.91.26c.52,0,1,.11,1,.57s-.37.68-1,1v4.47h2.54V87.09l7,.26c.21,0,1.09.06,1.09.68s-.72.83-1.09.93v4.42h4.06l-3-1.14a37.91,37.91,0,0,0,2.65-5.35l7.22,2.54a.67.67,0,0,1,.47.57c0,.73-.83.68-1.51.68a28.11,28.11,0,0,0-1.66,2.7h7.17v5.71h-11c-.41,1-.83,2.08-1,2.5h8.94v5.55H83.91v1.46H97.52v5.24H83.91v1.56h19.84v5.72h-15a46.14,46.14,0,0,0,15,8.1c-3.74,2.8-4.52,4.1-5.14,5.3a46.44,46.44,0,0,1-14.75-9ZM76.07,99.09l1.09,2.5H83.7c.36-.78.57-1.15,1.14-2.5Z" style="fill: #fff"/>
      <path d="M128.89,127c8.38-1.54,10.85-8,10.85-12,0-3.13-1.66-8.88-8.92-9.45-1.19,14.12-7,24.65-11.11,24.65-3,0-8.61-5.09-8.61-12.23,0-8.3,7.57-18,18.91-18,8.45,0,15.83,5.75,15.83,15a18,18,0,0,1-4.56,11.93c-2.35,2.73-5.09,4.16-8.37,5.59A24.8,24.8,0,0,0,128.89,127Zm-12.07-9.53c0,3,1.66,5.21,2.47,5.21S121,121,121.37,120a33.77,33.77,0,0,0,3-13.28C119.86,108.34,116.82,114,116.82,117.49Z" style="fill: #fff"/>
      <path d="M174.28,90c.3.18.72.54.72.84,0,1-1.44.9-1.86.84-.84,1.14-5.82,7.5-10.92,13.08,1-.06,3.84-.3,5.76-.42-.48-2.16-.72-3.12-1.08-4.32l5.7-1.62c.36.84.54,1.26,1.56,4.14a35.88,35.88,0,0,0,9.54-3.9,39.93,39.93,0,0,1-5.34-7l4.5-3.06H175v-7h26.57l3.66,3.84a46,46,0,0,1-8.81,13.26,50,50,0,0,0,11.69,4.68,22.85,22.85,0,0,0-4.32,7.08,37,37,0,0,1-7.14-2.76c.06.72-.36,1-1.13,1.38v4h9.71v7.56h-9.71v5.64h12v7.86H173.2v-7.86h13.86v-5.64h-9.18v-7.56h9.18v-6.54l8.21.49a52.12,52.12,0,0,1-5-2.94,42.31,42.31,0,0,1-11.58,5.64,12.38,12.38,0,0,0-4.26-6.6c.78,2.34,1.5,4.49,2,6.83-1.14.25-6.24,1.38-7.26,1.69-.06-1-.12-1.32-.18-1.92l-1.14.18v25.61h-7.92V116.44a4.08,4.08,0,0,1-1,.54c-.3,2.46-1,9.18-2.46,13.08-1.2-.66-2.52-1.32-6.72-1.92,1.62-3.72,2.7-9.42,3.3-14.22l6.18,1a2,2,0,0,1,.72.24v-4c-.78.06-4.2.54-4.86.66-.6,1-1,1.73-1.62,1.73s-.72-.83-.78-1.26l-1.26-7.61c.72,0,2.64-.12,3.48-.12,1.86-2.16,2.64-3.18,3.54-4.32a59,59,0,0,0-8.22-6L154.6,87c.6.42,1,.72,1.38,1a65.32,65.32,0,0,0,4.44-8.46l7.2,3.36a.94.94,0,0,1,.54.66c0,.36-.6,1-1.86.84a61,61,0,0,1-4.68,7.74c1,.78,1.2,1,1.68,1.44a60.55,60.55,0,0,0,4.2-6.9Zm1,22.2a50.27,50.27,0,0,0,2.64,11.21,30.07,30.07,0,0,0-7,2.4,59.41,59.41,0,0,1-2.94-12Zm10.26-23.58a36.55,36.55,0,0,0,4.26,5,20.23,20.23,0,0,0,3.84-5Z" style="fill: #fff"/>
      <path d="M238.33,89.21a33.43,33.43,0,0,0-4.14-5.94l7-3.72a39.06,39.06,0,0,1,5.4,7.62c-.54.36-2.88,1.74-3.36,2H248a51.52,51.52,0,0,0,6.42-8.88l7.08,3.6a1,1,0,0,1,.6.84c0,.48-.54.78-1.86,1-1.08,1.8-1.8,2.94-2.22,3.48h11.7v14.64h-9.06v-7.5H225v7.5h-9V89.21h8.76a36.22,36.22,0,0,0-3.48-4.86l7-3.54a41.11,41.11,0,0,1,5.1,7.08c-.24.18-1.38.9-2.1,1.32Zm26,27.54v18.59h-8.76v-1.68H230.47v1.68h-8.82V116.75h14.58c.48-1,1.26-2.46,1.44-2.83H226.93V98.39h31.92v15.53H247.27c-.18.42-1.14,2.4-1.38,2.83Zm-8.76,10.31v-3.6H230.47v3.6Zm-19.8-22.55v3.3h14.34v-3.3Z" style="fill: #fff"/>
      <path d="M299.47,89.87v6.18H278.05V89.87Zm20.34,45.59H312v-11.7a34.35,34.35,0,0,1-10,9.36,23.42,23.42,0,0,0-3.18-3.54v4.8h-7.5v-1.62h-3.54v2.58h-8v-20.4h19v11a29.3,29.3,0,0,0,9-9.36h-8.28v-6.83H312v-2.64H300.85V81.47h30.36v25.68h-11.4v2.64h13.74v6.83H322.87a47.21,47.21,0,0,0,12.42,10.68,18.84,18.84,0,0,0-5.4,5.52c-4.44-3.06-7.26-5.34-10.08-9.12Zm-22.38-54v6.42H280.57V81.47Zm0,16.62v6.3H280.57v-6.3Zm0,8.52v6H280.57v-6Zm-9.6,15.11v4h3.54v-4Zm24.36-34.07h-4v3.84h4Zm0,9.48h-4V101h4Zm7.44-5.64h4V87.65h-4Zm0,9.48h4V97.13h-4Z" style="fill: #fff"/>
      <path d="M371.46,118.12V90.35h5.71c.29-.54.83-1.92,1.08-2.52h-8.82V81.47h28.13v6.36h-11.1c-.24.54-.84,2.1-1.08,2.52h10.68v27.77h-4.92a26,26,0,0,0,7.26,4,21.7,21.7,0,0,0-4,4.56c1.08-.06,3.54-.24,4.68-.36-.78,1.14-2.28,3.3-2.82,8.46-4.92.06-12.84.12-17.81.12-10.38,0-19.56-.18-27.72-7-1,4.44-1.5,6-2.46,7.68-5-2.1-6.48-2.4-7.62-2.64a32.57,32.57,0,0,0,4-16.38c0-1.67-.12-2.52-.18-3.48l7.68.73c.54,0,1.38.12,1.38.83s-.54.84-1.26,1.14c0,.66-.18,3-.24,3.3a28.84,28.84,0,0,0,2.46,2.28v-10H342.31v-6.42h27.42v6.42h-7.68v3h7.38v6.6h-7.38v4.74c3.24,1.08,6.3,1.26,11.1,1.5a19.61,19.61,0,0,0-5.64-4.14,51.86,51.86,0,0,0,8.1-4.92Zm-3.71-36.65v21.36h-23.7V81.47Zm-8,8.16V87.29h-7.5v2.34Zm-7.5,5V97h7.5V94.67Zm30.17,25.55a1.33,1.33,0,0,1,.72,1.08c0,.72-1.26.84-2.1.84-2.09,1.74-4.74,4-6.29,5a170.21,170.21,0,0,0,17.09-.36,30.64,30.64,0,0,1-7.55-6.18l2.75-2.52h-7.32Zm5.94-21.89V96.17h-9.11v2.16Zm-9.11,4.86v2.16h9.11v-2.16Zm0,7v2.22h9.11v-2.22Z" style="fill: #fff"/>
      <path d="M424,98.93c.23,0,.77.15.77.69s-.69.58-1,.58l-.89,1.89a41.81,41.81,0,0,0,8-1.81V106c-5.75,1-6.45,1.12-11,1.66l-1.51,2.66a7.33,7.33,0,0,1,3.36-.77,6.77,6.77,0,0,1,5.63,3.28c5.72-2.74,6.37-3,7.8-3.82l2.28,6.17a89.79,89.79,0,0,0-8.8,3.13c.07,1.12.11,2.31.11,3.47,0,1.74-.07,2.82-.11,3.86-1.24-.08-2.63-.08-3.86-.08a16.67,16.67,0,0,0-2.24.08,32.68,32.68,0,0,0,.27-4.4c-2.39,1.47-4.82,3.09-4.82,4.67,0,1.74,3.93,1.85,5.9,1.85a43.21,43.21,0,0,0,12.35-1.89,24.28,24.28,0,0,0-.73,6.14,47.93,47.93,0,0,1-10.77,1.12c-2.58,0-12.62,0-12.62-6.83,0-4.56,6.14-8.38,10.34-10.58a2.8,2.8,0,0,0-2.89-1.93c-4,0-6.72,4.33-8.84,7.76l-5.36-3.05a82.34,82.34,0,0,0,7.83-10.38c-2.08.08-3.78.08-5.44,0l0-5.6c1.2.12,3.43.31,6.06.31,1.12,0,1.58,0,2.2,0a28.5,28.5,0,0,0,2-5Z" style="fill: #fff"/>
      <path d="M472.43,88V81.41h26.34c0,17.64,0,20-10.74,20.4l2.94.3c.9.12,1.86.18,1.86.84,0,.48-.6.72-1.32,1v1.92h6.84v6.71h-6.84v4.62h7.92v6.72h-7.92v11.4h-7.8v-11.4H473.09v-6.72h10.62V112.6h-4.92a29,29,0,0,1-2,3.9,15.68,15.68,0,0,0-5.52-2.63v15.35c0,5.88-2.16,5.94-9.6,6.18a20.57,20.57,0,0,0-2.64-7.8c.84.18,3.6.54,4.08.54,1.32,0,1.38-.9,1.38-2v-5.22h-10.8a37,37,0,0,1-4.44,14.52,23,23,0,0,0-6.9-3.9c4-5.52,4.62-9.78,4.62-20.4V98.51a24,24,0,0,0-5.16-2.1c1.32-1.44,7.5-8.34,10.08-16.68l7.38,1.56c.42.06,1.2.24,1.2.84s-.48.78-1.38,1.08c-.12.3-.18.42-.24.6h8.76l2.52,2.1a73.16,73.16,0,0,1-4.56,8.28h5.7v1.92c2.94-1.86,5.22-4,6.18-8.16Zm-15.84,6.24c.84-1.5,1.26-2.28,1.92-3.72h-3.06c-.78,1.38-1.44,2.46-2.28,3.72Zm-2.64,7v3.54h2.58v-3.54Zm0,13.19h2.58v-3.59H454Zm7.92-13.19v3.54h2.58v-3.54Zm2.58,9.6h-2.58v3.59h2.58Zm6.78-12.6V112.6c1.8-3,3.72-7,4-10.31A14.51,14.51,0,0,0,471.23,98.21Zm15.3,3.42a13.57,13.57,0,0,0-3.06-7.8c-.84,1.74-2.34,4.56-6.9,8.64l4.62.72c.6.12,1.32.18,1.32.78,0,.3-.12.6-1.26,1.08-.06.3-.12.53-.18.84h2.64v-4.56Zm-1-13.68a32.41,32.41,0,0,1-2,5.82,19.4,19.4,0,0,0,4.56.6c1.8,0,2.58,0,2.58-6.42Z" style="fill: #fff"/>
      <path d="M509.76,94.67a61,61,0,0,1,9.42,6.9,55.69,55.69,0,0,0-5.1,6.42,74.15,74.15,0,0,0-9-6.78ZM521,113v-7.85h14c.06-.78.06-1.08.06-2.58v-5.4H523.5v-7.5h11.58v-9.9l8.7.42c1.2.06,1.56.06,1.56.72s-.6,1-1.56,1.38v7.38h14.88v15.48H562V113H545.28c3.48,7.08,10.2,11.82,17.1,15.12a18.93,18.93,0,0,0-5,7.5,45.24,45.24,0,0,1-17.46-15.12,32.49,32.49,0,0,1-18.24,15.36c-2-3.6-3.36-5.34-5.46-6.72-.84,1.74-1.38,2.76-2.64,5a1.07,1.07,0,0,1,.36.78.8.8,0,0,1-.84.9,1.48,1.48,0,0,1-1-.36l-7-4.62a61.68,61.68,0,0,0,9.42-18.78,19.42,19.42,0,0,0,6.78,4.74,67.3,67.3,0,0,1-5,11.94c4.92-1.14,14.34-4.92,17.52-15.72Zm-8.16-33.77a51.27,51.27,0,0,1,9.6,6.36,53.66,53.66,0,0,0-4.92,6.9,63.48,63.48,0,0,0-9.18-6.9Zm37.08,25.92v-8h-6.12v8Z" style="fill: #fff"/>
      <path d="M591.38,98.93c.61.07,1,.11,1,.42s-.46.58-.77.66c-.08.69-.12,1.15-.19,2.7,10.88-.46,12.08-.5,12.81-.58,0,.81-.12,4.63,0,6.21-7-.34-9.92-.34-12.74-.31a32.17,32.17,0,0,0,0,4.29c2.24,2.74,2.24,6.87,2.24,7.41a18.24,18.24,0,0,1-8.95,14.89,25.83,25.83,0,0,0-5.64-4c1.16-.47,5.71-2.4,7.1-5.56a4.3,4.3,0,0,1-3,.93,5.15,5.15,0,0,1-4.16-1.74,9.68,9.68,0,0,1-1.66-5.71c0-8.49,7.25-8.22,8.06-8.11,0-1.23,0-1.58,0-2.16a106.42,106.42,0,0,0-15.4,2l-.42-6.52c.89,0,2.35,0,15.67-.81a40.66,40.66,0,0,0-.54-4.9Zm-8.92,19.29c0,2.55,1.28,3.24,2,3.24,1.2,0,1.89-1.77,1.89-3.7,0-.89-.19-2.39-1.74-2.39C583.31,115.37,582.46,116.64,582.46,118.22Z" style="fill: #fff"/>
      <path d="M634.85,102.86c-2.63,1.74-8.61,7.72-9.46,8.61a20.64,20.64,0,0,1,4.63-.58c5.25,0,10.65,3.32,10.65,10.15,0,8.49-8.06,12.19-14.74,12.19-5,0-9.8-2-9.8-6.63,0-3.83,3.55-6.18,7.57-6.18,3.62,0,7.4,2,8.29,5.67,2.55-1.27,2.55-4.24,2.55-4.55,0-.93-.31-5.63-6.29-5.63-6.52,0-10.23,3.82-15.59,9.41L608,120.81c4.44-3.09,13-11.58,15.63-15-1.24.27-2.55.57-10.27,1.35l-.92-6.06c1.5,0,12.65.15,19.29-2.43Zm-11.62,22.38c-1.31,0-1.62.74-1.62,1.39,0,1.47,2.16,2.05,3.47,2.05a6.21,6.21,0,0,0,1.93-.31A3.79,3.79,0,0,0,623.23,125.24Z" style="fill: #fff"/>
    </g>
    <circle cx="179.43" cy="66.34" r="6.5" style="fill: #fff"/>
    <circle cx="242.93" cy="66.34" r="6.5" style="fill: #fff"/>
    <circle cx="306.43" cy="66.34" r="6.5" style="fill: #fff"/>
    <circle cx="369.93" cy="66.34" r="6.5" style="fill: #fff"/>
    <circle cx="472.93" cy="66.34" r="6.5" style="fill: #fff"/>
    <circle cx="532.93" cy="66.34" r="6.5" style="fill: #fff"/>
  </g>
</svg>
