<svg xmlns="http://www.w3.org/2000/svg" width="175" height="45" viewBox="0 0 175 45">
  <g>
    <rect width="175" height="45" style="fill: #231815"/>
    <g>
      <polygon points="15.25 36.13 19.74 31.33 38.04 31.33 38.04 26.21 21.46 26.21 20.57 26.21 20.57 25.3 20.57 14.24 12.6 14.24 12.6 31.33 15.25 31.33 15.25 36.13" style="fill: #fff"/>
      <path d="M40.48,25.26l4.59,5.07V25.26h2.85V7.6H21.52V25.26h19Zm3.08-10.67a2,2,0,1,1-2,2,2,2,0,0,1,2-2m-16.88,4a2,2,0,1,1,2-2,2,2,0,0,1-2,2m5.62,0a2,2,0,1,1,2-2,2,2,0,0,1-2,2m5.63,0a2,2,0,1,1,0-4H38a2,2,0,0,1,0,4h-.11" style="fill: #fff"/>
    </g>
    <g>
      <path d="M67.78,20.68a2.34,2.34,0,0,0-2-1.5A1.77,1.77,0,0,0,64,20.8c0,1.34,1.68,1.84,3.39,2.56s3.4,1.75,3.4,4.21a4.79,4.79,0,0,1-5,4.77,5.27,5.27,0,0,1-5.17-3.71l2.21-.94c.63,1.37,1.34,2.34,3,2.34a2.22,2.22,0,0,0,2.36-2.24c0-3.28-6.6-2.16-6.6-6.77A4.18,4.18,0,0,1,66,16.87a4.44,4.44,0,0,1,3.9,2.72Z" style="fill: #fff"/>
      <path d="M78,31.93h-2.5V19.59H73.93V17.28h1.52V12H78v5.27h2.62v2.31H78Z" style="fill: #fff"/>
      <path d="M85.43,25.14A4.74,4.74,0,0,0,90.23,30c2.12,0,3.49-1.28,4.46-3l2.12,1.21A7.41,7.41,0,0,1,90,32.34c-4.36,0-7.17-3.34-7.17-7.55S85.4,16.87,90,16.87s7.2,3.9,7,8.27ZM94.31,23A4.47,4.47,0,0,0,90,19.18,4.65,4.65,0,0,0,85.55,23Z" style="fill: #fff"/>
      <path d="M104,19.37h.07a6.17,6.17,0,0,1,5-2.5c4.3,0,7,3.71,7,7.77s-2.65,7.7-7,7.7a6.16,6.16,0,0,1-5-2.47H104V40.16h-2.49V17.28H104Zm-.12,5.08c0,2.87,1.68,5.58,4.8,5.58s4.89-2.59,4.89-5.55-1.84-5.3-4.92-5.3C105.73,19.18,103.86,21.71,103.86,24.45Z" style="fill: #fff"/>
    </g>
    <path d="M131.1,11.44l1.57-2.78h5.88V35.53h-3V11.44Z" style="fill: #fff"/>
  </g>
</svg>
