<svg xmlns="http://www.w3.org/2000/svg" width="533.53" height="392.84" viewBox="0 0 533.53 392.84">
  <g>
    <g>
      <g>
        <path d="M200.54,356.55A126.11,126.11,0,0,1,173,359.24v-.74a69.25,69.25,0,0,0,31.65-13.27c7.05-5.29,11-11.6,11-21,0-14.66-14.48-15-16-15-16.06,0-26.55,11.6-33.69,19.49-2,2.22-4.18,3.8-7,3.8-7.24,0-13.18-9.37-13.18-14.85a9.52,9.52,0,0,1,3.25-7.14c.74,5.1,2.69,7.33,6.12,7.33a18.83,18.83,0,0,0,6.69-1.67c17.16-6.78,27.09-10.77,40.37-10.77,13.54,0,26.82,7.71,26.82,23.3C229,349.77,207.78,355,200.54,356.55Z" style="fill: #ec6d0f"/>
        <path d="M283.08,361.57a72.91,72.91,0,0,1-16.44,4.64l-.26-.46c9.88-4.11,20.94-12.53,20.94-27.64,0-13.52-9.94-17.7-17.43-17.7a10.71,10.71,0,0,0-3.25.4c2.46,1.52,6,3.84,6,8.15,0,4.64-7.1,17.57-10.94,23.53-.66,1-5.83,8.88-9.61,8.88-2.85,0-3.78-1.65-5.31-4.44a8.35,8.35,0,0,0-2.65-2.91c-1.12-1-2.91-2.92-2.91-8.42,0-15,12.92-27.64,29.82-27.64,12.2,0,26.12,7.42,26.12,22.4C297.2,353,288.19,359.39,283.08,361.57Zm-18.42-40.36c-10.28,3.58-16.78,15-16.78,23.39,0,2,.8,9,3.45,9s5.7-5.57,8.49-11.2c2.85-5.9,5.83-13.39,5.83-17.1A7,7,0,0,0,264.66,321.21Z" style="fill: #ec6d0f"/>
        <path d="M343.92,317.57H331.11v4.27c1.95.46,11.14,2.88,11.14,9.09,0,3.07-2.88,4.46-4.83,4.46-2.51,0-3-1.86-3.53-3.9a20.67,20.67,0,0,0-2.78-6.22c.09,13.74.18,27.75.18,41.39,0,2.88,0,6.41-6.4,6.41-3.8,0-4.27-1.58-4.27-5,0-8.08.19-22.74.28-31.28a66.35,66.35,0,0,1-14.48,14.57l-.92-.56c6.12-9.18,11.32-23.85,12.9-33.22h-6.22c-.37,0-2.23,0-4.27.19L306.42,315c3.44.28,6.68.37,7.43.37h7.33l.28-14a128.75,128.75,0,0,1-14,1.67v-.74c11.33-4.92,22.09-13.27,23.3-15.31l11.32,9c.37.37.74.65.74,1.11,0,.65-.65.93-1.39.93a12.56,12.56,0,0,1-2.41-.46,49.92,49.92,0,0,1-8.08,2.13l.1,15.68h.65l3.15-5.94c.19-.37.74-1.11,1.39-1.11s1.49.84,1.67,1l6.59,5.85c.75.65.84,1.11.84,1.39C345.31,317.48,344.47,317.57,343.92,317.57Zm42.59,28.77c-3.89,0-4.17-2.23-4.82-6.12a31.4,31.4,0,0,0-4.55-11,108,108,0,0,1-15.59,21.07c0,1,.09,6.68.18,7.05.38,1.95,1.95,2.79,8.26,2.79,5.29,0,8.26,0,11.33-12.81h.74A96.09,96.09,0,0,0,384,358.5c.37,1,1.2,1,2.6,1.57.92.38,1.39,1.4,1.39,3,0,8.17-9.38,8.54-17.17,8.54-14.57,0-19.21-.37-19.68-12.34a91.7,91.7,0,0,1-18.09,10.39l-.19-.83c7.15-4.36,13.74-11.32,18.1-16.71,0-3.43.28-18.65.28-21.71,0-4.83,0-13-.84-19l13.09,2.42c.46.09,1.11.27,1.11.92s-.83,1.4-3.15,2.42v19.95c12.34-21.81,14.47-35.64,14.66-40.37l14.85,8a1.35,1.35,0,0,1,.83,1.11c0,1.21-1.11,1.58-4,2.14A186.53,186.53,0,0,1,378.44,327a26.2,26.2,0,0,1,10.21,4.73,10.34,10.34,0,0,1,3.52,8.07C392.17,344.11,389.58,346.34,386.51,346.34Zm-45.38,3.71a5.35,5.35,0,0,1-5.47-5.19c0-2.42,1.48-3.81,3.62-5.67a17.81,17.81,0,0,0,5.84-12.52h.93A42.83,42.83,0,0,1,348,339.1C348,341.89,347.81,350.05,341.13,350.05Zm25.62-42.13c-2.79,0-3.25-1.11-5.48-5.85-1.95-4.27-5.66-9.09-9.56-11.41v-.74c3.71.37,11.14,1.11,15.31,3.71s6,6.12,6,8.54A6,6,0,0,1,366.75,307.92Z" style="fill: #ec6d0f"/>
        <path d="M438.58,308.2H415.29a53.3,53.3,0,0,0-10,.65l-1.58-3.44c5.75.56,12.34.56,13.27.56h8.63l3.43-5.75c.28-.47.75-1.21,1.49-1.21a3,3,0,0,1,1.67.93l6.87,5.84c.46.47.93.84.93,1.49C440,308.1,439.23,308.2,438.58,308.2Zm-4.27,39.9v6.13c0,1.76.38,6,.38,7.52,0,1.67-.28,3.06-2.05,3.89a14.47,14.47,0,0,1-5.66,1.3c-3.06,0-2.87-1.95-2.6-4.45H417c0,1.2.19,5.29.19,6a3.65,3.65,0,0,1-1,2.88,6.16,6.16,0,0,1-4.64,1.85c-4.45,0-4.45-1.85-4.45-4.08s.28-11.42.28-13.27c0-7.61-.37-13.37-.74-18.28l10.85,3.43h6.5l3.16-3.8c.83-1,1.11-1.49,1.67-1.49a2.57,2.57,0,0,1,1.57.93l6.59,5.66c.84.74,1.58,1.3,1.58,1.95C438.49,345.78,435.8,347.27,434.31,348.1Zm54.39-16.61H463.83c1.67,4.83,10,20.23,25.24,28.4v.83c-2.51,1.77-5.85,4.18-9.93,11.79-10.12-9.74-14.29-23.66-16.61-37.59C460,350.61,453,365.83,431.62,374l-.55-.93c5.66-3.71,18.84-12.9,21.71-41.58h-4.55c-6.4,0-8.25.28-10,.65l-.28-.65H413a31.26,31.26,0,0,0-4.27.28L407.22,329c2.32.09,5.1.27,7.42.27h9.56l3.9-6c.46-.65.92-1.2,1.48-1.2a2.79,2.79,0,0,1,1.77.92L438,328.8c3.62.28,8.26.46,11.88.46H453c.09-3,.18-5.66.18-10.58,0-5.19-.09-8.53-.18-10.58a53.4,53.4,0,0,0-9.65.65l-1.49-3.43c2.69.28,8.45.56,11.05.56-.75-12-.93-14.11-1.95-19.21l15.22,2.5c.92.19,2.22.56,2.22,1.67,0,.93,0,1.67-4.64,3.53,0,1.39,0,2.41-.18,11.51h4.55l3.06-4.46c.55-.83,1-1.48,1.58-1.48s.92.37,1.76.93l7.15,5.19c.64.47,1,.75,1,1.21,0,.74-.93,1.58-4.18,4.55-.09,2.5-.19,14.66-.28,17.44h.19l3-6.4c.28-.56.74-1.21,1.39-1.21a2.15,2.15,0,0,1,1.58,1.12l5,6.31c.46.56.74.93.74,1.39C490.09,331.4,489.16,331.49,488.7,331.49Zm-52.9-12.34H413.15a31.89,31.89,0,0,0-4.26.28l-1.49-2.79c3.34.28,6.68.28,7.43.28h9.37l2.69-5.1c.28-.56.74-1.21,1.39-1.21s1,.37,1.67.93l6.31,5.2a2,2,0,0,1,.93,1.48C437.19,319.06,436.45,319.15,435.8,319.15Zm.93-22.37H413.25a31.92,31.92,0,0,0-4.27.28l-1.49-2.78c3.35.18,6.69.28,7.43.28h8.81l3.35-5.48c.27-.46.74-1.21,1.39-1.21s1.11.47,1.67.93l7.05,5.57a2,2,0,0,1,.93,1.48C438.12,296.69,437.38,296.78,436.73,296.78Zm-12.35,46.5H417v17h7.42Zm39.17-35.18c-.1,3.35-.19,18.19-.37,21.16h4.64c0-1.48.37-18.93.37-21.16Z" style="fill: #ec6d0f"/>
      </g>
      <path d="M69.92,320.16c-1.62,0-2.43-.61-2.43-2,0-1.62,3.45-3,5.07-3.85,15.43-7.92,36.54-19.7,36.54-39.59,0-13.19-8.73-18.88-21.31-18.88-13.4,0-18.88,7.72-21.12,7.72A2.52,2.52,0,0,1,64,261.09c0-3.45,16.24-13.4,30.25-13.4,13.6,0,29.44,7.92,29.44,23.35,0,21.31-29.44,34.3-29.44,38.36,0,2.44,32.28-.2,32.28,31.06,0,22.94-33.09,52.38-63.13,52.38-1.22,0-13.81-.81-14.21-4.27C48.61,383.09,48,377.82,48,376.8c0-3.65,1-4.26,2.43-4.26,5.69,0,4.06,11.16,22.74,11.16,20.71,0,38.16-18.67,38.16-40,0-16.24-12.58-25-29-25C75.2,318.74,72.15,320.16,69.92,320.16Z" style="fill: #ec6d0f"/>
      <path d="M357,272.05a8.44,8.44,0,1,1-8.44-8.44A8.44,8.44,0,0,1,357,272.05Z" style="fill: #ec6d0f"/>
      <path d="M448.32,272.05a8.44,8.44,0,1,1-8.44-8.44A8.44,8.44,0,0,1,448.32,272.05Z" style="fill: #ec6d0f"/>
    </g>
    <g>
      <path d="M1,214.59,0,212.4a16.36,16.36,0,0,0,8.13-4.2Q11,205.28,11,199.33H14a15.72,15.72,0,0,1-1.65,7.83,13.83,13.83,0,0,1-4.51,4.72A19.88,19.88,0,0,1,1,214.59Zm18.4-29.49v4.12H32.81v2.44H3v-2.44h13.3V185.1H.57v-2.45H16.29V179.3h3.09v3.35H35.25v2.45Zm12.77,16.15v-4.08H3.55v4.25H.74v-6.58H35v6.41Zm-11.95-2h3.1v10.52a1.48,1.48,0,0,0,.63,1.23c.41.31,1.6.47,3.57.47a16.45,16.45,0,0,0,3.42-.24A1.78,1.78,0,0,0,32.23,210a18.75,18.75,0,0,0,.33-4.58l2.73.33v4.65a3.22,3.22,0,0,1-.91,2.45,4.2,4.2,0,0,1-2.64,1c-1.16.09-2.63.14-4.42.14s-3,0-3.82-.12a4.43,4.43,0,0,1-1.95-.57,2.85,2.85,0,0,1-1-1.17,3.84,3.84,0,0,1-.35-1.71Z" style="fill: #231815"/>
      <path d="M53.37,199.3q-2.2,3.3-6.76,9.7l-2-2a76.94,76.94,0,0,0,4.93-6.89,49.16,49.16,0,0,0,3.88-6.86V189H46.24v-2.56h7.13v-6.34h3v12a38.79,38.79,0,0,1,7.39-5.92,13.59,13.59,0,0,1,6.75-2.38A6.38,6.38,0,0,1,75,185.44a5.6,5.6,0,0,1,1.77,4.25c0,.15,0,.32,0,.48L75.57,203c-.26,2.9-.39,4.44-.39,4.61,0,1.63.69,2.44,2,2.44q1.67,0,5.1-1.92l.8,2.45a12,12,0,0,1-6.62,2.28,4,4,0,0,1-3.22-1.3,5.23,5.23,0,0,1-1.13-3.58q0-.66.91-9.3c.36-3.4.56-6.33.63-8.81a3.21,3.21,0,0,0-.84-2.28,3,3,0,0,0-2.27-.9q-5.27,0-14.27,9.24v17.69h-3Z" style="fill: #231815"/>
      <path d="M111.46,210.7q7.32-1.75,7.32-7.54a6.42,6.42,0,0,0-2.69-5.52,11.94,11.94,0,0,0-7.19-2,23.28,23.28,0,0,0-6,.78,25.43,25.43,0,0,0-6.76,3.19,52.55,52.55,0,0,0-5.33,3.67l-1.44-2.4q11.9-7.68,23.24-16.16l-19.76.08v-2.6h23.84l1.37,2-13.77,9.53.16.23a16.33,16.33,0,0,1,4.74-.72,15.43,15.43,0,0,1,9.21,2.58A8.27,8.27,0,0,1,122,203a9.07,9.07,0,0,1-4.42,8.13q-4.41,2.81-11.83,2.8-10.2,0-10.2-5.6a4.43,4.43,0,0,1,2.11-3.71,7.84,7.84,0,0,1,4.63-1.51,9.48,9.48,0,0,1,6,2A8.59,8.59,0,0,1,111.46,210.7Zm-2.87.51q-1.14-5.61-6.1-5.61a5.21,5.21,0,0,0-2.84.79,2.35,2.35,0,0,0-1.26,2.07q0,3,6.92,3A24.61,24.61,0,0,0,108.59,211.21Z" style="fill: #231815"/>
      <path d="M154.31,212.13h-22.7v-3.28l18.07-23h-17.4v-3.17h21.6v3.19L135.64,209h18.67Z" style="fill: #231815"/>
      <path d="M183.46,212.13H164.3V182.69h19.16v3.17H167.94v8.57h15.13v3.17H167.94V209h15.52Z" style="fill: #231815"/>
      <path d="M217.9,212.13h-4.74l-9.69-11.84h-6v11.84h-3.63V182.69h8.34q5.88,0,8.41,2.21a7.35,7.35,0,0,1,2.53,5.8q0,6.08-6,8.56Zm-20.43-26.35V197.3h4.28c2.69,0,4.63-.54,5.8-1.64a6.23,6.23,0,0,0,1.76-4.78q0-5.1-6.9-5.1Z" style="fill: #231815"/>
      <path d="M237.05,212.73q-6.27,0-9.84-4t-3.58-11.26q0-7.18,3.58-11.26t9.84-4.07q6.27,0,9.85,4.07t3.59,11.26q0,7.17-3.59,11.24T237.05,212.73Zm0-27.54A8.54,8.54,0,0,0,230,188.4q-2.53,3.19-2.54,9c0,3.88.85,6.89,2.54,9a9.48,9.48,0,0,0,14.2,0c1.69-2.12,2.54-5.13,2.54-9s-.85-6.92-2.54-9A8.57,8.57,0,0,0,237.07,185.19Z" style="fill: #231815"/>
      <path d="M258.77,188.9v-2.5h20.84l0-7.3h3.14v7.3h12.85v2.5H282.81a51,51,0,0,0,1.09,9.86,25.57,25.57,0,0,0,3.31,8.26q2.31,3.72,3.77,3.72c.83,0,1.31-.68,1.44-2.05l.27-2.4c.08-.86.14-1.69.18-2.5l2.54.45a42.83,42.83,0,0,1-.53,7.16q-.53,3.07-3,3.07a4.68,4.68,0,0,1-2.63-.75,16.37,16.37,0,0,1-3.06-3,23.41,23.41,0,0,1-3.42-5.54,31,31,0,0,1-2.27-7.72,57.46,57.46,0,0,1-.86-8.58Zm.9,24.56-.49-2.66q3.17-.21,8.88-.8V197h-7.59v-2.4h17.79V197h-7.09v12.7c4.47-.5,7.47-.88,9-1.16l.1,2.54c-1.16.26-4.18.67-9.08,1.22S262.45,213.22,259.67,213.46Zm30.62-27.21c-.35-.48-2-2.27-4.84-5.35l2.4-1.55q1.68,1.67,4.94,5.1Z" style="fill: #231815"/>
      <path d="M305.22,188.63v-2.28h14.69v2.28Zm3.75,24.2v1.5h-2.73v-12h12.24v10.53Zm-2.28-29.59V181H318.6v2.28Zm0,10.66v-2.24h11.6v2.24Zm0,5.18v-2.25h11.6v2.25Zm8.94,5.39h-6.62v6.19h6.62Zm6.82-11h12.56V183.34H321.51v-2.46h16.6v16.17h-3.06v-1.19h-9.56v13.63a1.54,1.54,0,0,0,.93,1.55,14.23,14.23,0,0,0,4.5.42c.92,0,1.91,0,3-.11a6.25,6.25,0,0,0,1.91-.3,6.84,6.84,0,0,0,.66-.46c.25-.18.44-.84.56-2s.17-2.32.17-3.61v-.35l2.62.41v5.54a2.7,2.7,0,0,1-.33,1.35,3.07,3.07,0,0,1-.91,1,4.44,4.44,0,0,1-1.22.59,14.28,14.28,0,0,1-2.47.34c-1.22.09-2.58.13-4.07.13-1.15,0-2.28,0-3.4-.11s-1.93-.13-2.41-.19a2.53,2.53,0,0,1-1.32-.57,3.25,3.25,0,0,1-.9-1.15,3.58,3.58,0,0,1-.31-1.53Z" style="fill: #231815"/>
      <path d="M350.42,207.71v-2.16h14.5v-3.19H348.39v-2.21h16.53v-2.92H350.83v-2.06h14.09v-2.81H352v-6.64h12.89v-2.58H348.84v-2.2h16.08v-2.15H368v2.15h17.07v2.2H368v2.58h13.48v6.64H368v2.81h14.79v5h2.69v2.21h-2.69v5.35H368v3.87a2.59,2.59,0,0,1-1.08,2.18,4.4,4.4,0,0,1-2.71.81h-5.78l-.33-2.7H363a2,2,0,0,0,1.33-.45,1.34,1.34,0,0,0,.55-1.07v-2.64Zm14.5-20.07H354.8v2.93h10.12Zm13.71,0H368v2.93h10.63Zm1.17,12.51v-2.92H368v2.92Zm-11.8,5.4h11.8v-3.19H368Z" style="fill: #231815"/>
      <path d="M413.73,212.13H395.39V182.69H399V209h14.71Z" style="fill: #231815"/>
      <path d="M426.76,201v11.12h-3.63V182.69h8.12q5.69,0,8.41,2.4a8.11,8.11,0,0,1,2.72,6.43,8.74,8.74,0,0,1-3,6.85q-3,2.64-8.33,2.64Zm0-15.23V198h3.63c3,0,5.1-.58,6.34-1.73a6,6,0,0,0,1.86-4.6,5.31,5.31,0,0,0-1.81-4.36c-1.21-1-3.15-1.48-5.8-1.48Z" style="fill: #231815"/>
      <path d="M469.36,211.25h-2.89l-.33-2.4h2.11a1.6,1.6,0,0,0,1.13-.39,1.17,1.17,0,0,0,.43-.88v-7H464.3v14h-3v-14H456v11.09h-3V198.4h8.25v-4.77h-9.75v-2.24h9.75v-4.57h-5.76a19.94,19.94,0,0,1-2.15,3.33l-2.29-1.05a28.57,28.57,0,0,0,4.24-8.91l2.77.45a23.15,23.15,0,0,1-1.42,3.89h4.61v-5.14h3v5.14h8.62v2.29H464.3v4.57h9.14v2.24H464.3v4.77h8.4v10a2.56,2.56,0,0,1-1,2.1A3.67,3.67,0,0,1,469.36,211.25Zm6.33-6V181.54h2.89v23.67Zm6.6,8.93h-5.1l-.44-2.68H481a1.66,1.66,0,0,0,1.14-.42,1.36,1.36,0,0,0,.46-1.06V179.32h3v32a2.48,2.48,0,0,1-1,2A3.67,3.67,0,0,1,482.29,214.14Z" style="fill: #231815"/>
      <path d="M501.46,214.73V194.8a48.11,48.11,0,0,1-4.32,6.14l-2-1.61a59.16,59.16,0,0,0,6.11-10,42.47,42.47,0,0,0,3.85-10.32l3.15.57a56.65,56.65,0,0,1-4.51,11h.66v24.09Zm16.07-.34V188.08h-2.94a45.14,45.14,0,0,1-6.27,10.4l-2.17-1.55a39.74,39.74,0,0,0,5.37-9.18,51.64,51.64,0,0,0,2.91-8.77l3.14.53a54.15,54.15,0,0,1-2,6.25h18v2.32H520.6v6h11.74v2.36H520.6v5.88h11.95v2.4H520.6v9.63Z" style="fill: #231815"/>
    </g>
    <g>
      <path d="M203.79,26.92H247L209,90.09h19.9a14.87,14.87,0,0,0,7-1.31,20.41,20.41,0,0,0,4.35-3.12,22.51,22.51,0,0,0,4.07-5.52,29.59,29.59,0,0,0,3.08-8.6h1V91.36H198.35L236.1,28.19h-14c-4.89,0-8.69,1.27-11.41,3.84a22.13,22.13,0,0,0-5.88,10.64h-1Z" style="fill: #0068b5"/>
      <path d="M247,64.43V1.26H236.92V0h51.77V15.65h-1a46.21,46.21,0,0,0-2.54-6.2,16.91,16.91,0,0,0-3.26-4.52,11.94,11.94,0,0,0-4.52-2.76A19.35,19.35,0,0,0,271,1.26H256v28h5.88a20.49,20.49,0,0,0,5.07-.53,7.78,7.78,0,0,0,3.58-2,12.07,12.07,0,0,0,2.53-4.08,50.94,50.94,0,0,0,2-6.64h1V44.08h-1q-.63-2.64-1.31-5.08a15.85,15.85,0,0,0-1.9-4.34,9.16,9.16,0,0,0-3.26-3,10.91,10.91,0,0,0-5.3-1.13H256V63.16h17.11A15,15,0,0,0,281.41,61v3.35l-26.59-.6" style="fill: #0068b5"/>
      <path d="M272.22,63.48a15.82,15.82,0,0,1,7.61,3.4,14,14,0,0,1,4.47,5.52,14.87,14.87,0,0,1,1.31,5.79,15.59,15.59,0,0,1-.5,3.49A11.48,11.48,0,0,1,282.94,86a16,16,0,0,1-4.83,4.07,21.91,21.91,0,0,1-8.42,2.49v.18q1.44.18,3.93.69a22.8,22.8,0,0,1,5.08,1.66,19.11,19.11,0,0,1,4.74,3.13,10.51,10.51,0,0,1,3.08,5,21.92,21.92,0,0,1,.77,4.12c.15,1.54.27,3.12.36,4.75s.19,3.2.28,4.71a23,23,0,0,0,.49,3.79,14,14,0,0,0,1.72,4.26,4.13,4.13,0,0,0,3.8,1.9,7.32,7.32,0,0,0,2.45-.45,6.16,6.16,0,0,0,2.26-1.45l.81,1c-.3.25-.64.5-1,.77a8.63,8.63,0,0,1-1.5.78,11.79,11.79,0,0,1-2.22.58,19.29,19.29,0,0,1-3.22.23,17.3,17.3,0,0,1-6-.9,8.92,8.92,0,0,1-3.84-2.68,11,11,0,0,1-2.13-4.34,33.66,33.66,0,0,1-.95-6l-.63-8.23A17.19,17.19,0,0,0,276.11,99a9.51,9.51,0,0,0-7.42-5.12,34.11,34.11,0,0,0-3.62-.22H256v32.67h10.05v1.27H236.93v-1.27h10V63.16h7.15c.72,0,1.45,0,2.18,0M256,64.43v27h8a15.21,15.21,0,0,0,4.46-.63A7.61,7.61,0,0,0,272,88.66a10.18,10.18,0,0,0,2.23-4.15,23.57,23.57,0,0,0,.79-6.63,18.9,18.9,0,0,0-1.18-7.29,9.84,9.84,0,0,0-3.06-4.15,10.05,10.05,0,0,0-4.19-1.83" style="fill: #0068b5"/>
      <path d="M274.91,59.19a30.11,30.11,0,0,1,2.73-12.81,35.51,35.51,0,0,1,7-10.21,32.66,32.66,0,0,1,9.65-6.8A25.59,25.59,0,0,1,305,26.91a26.64,26.64,0,0,1,11.13,2.46,32.15,32.15,0,0,1,9.65,6.8,33.2,33.2,0,0,1,6.79,10.21,31.92,31.92,0,0,1,2.55,12.81,31.4,31.4,0,0,1-2.33,11.86,34.43,34.43,0,0,1-6.41,10.3,32.27,32.27,0,0,1-9.56,7.28A26,26,0,0,1,305,91.4a27.2,27.2,0,0,1-12-2.69c-3.69-1.78,1.35,5.67-1.33,2.69s-13-16.24-14.51-20.13a33.36,33.36,0,0,1-2.26-12.08m10,0a78.32,78.32,0,0,0,1,13.6,27.41,27.41,0,0,0,3.46,9.69,15.47,15.47,0,0,0,6.23,5.81,24.28,24.28,0,0,0,18.83,0,15.2,15.2,0,0,0,6.27-5.81,27.42,27.42,0,0,0,3.48-9.69,78.41,78.41,0,0,0,1-13.6,84.86,84.86,0,0,0-.77-11.55,32,32,0,0,0-3-10,18.09,18.09,0,0,0-6.15-7q-3.94-2.58-10.26-2.58T294.78,30.7a17.9,17.9,0,0,0-6.14,7,31.46,31.46,0,0,0-3,10,83.26,83.26,0,0,0-.78,11.55" style="fill: #0068b5"/>
      <path d="M225.43,145.34v-.12l4.64-6.47h-2.21c-1.1,0-1.72.19-1.91,1.4h-.27l.21-1.8h5.58v.12l-4.58,6.47h2.58c1.17,0,1.65-.3,1.95-1.46h.24l-.25,1.86Z" style="fill: #0068b5"/>
      <path d="M245.74,145.34v-.2c.78,0,.93-.33.93-.64v-5.31c0-.31-.15-.64-.93-.64v-.2h5.62v1.51h-.24a1.19,1.19,0,0,0-1.2-1.08h-1.7a.42.42,0,0,0-.47.41v2.27h1.49c.71,0,1.32-.18,1.32-1h.22v2.47h-.22c0-.82-.61-1-1.32-1h-1.49v2.6c0,.19.06.41.28.41h1.39a2,2,0,0,0,2.21-1.36h.3l-.48,1.79Z" style="fill: #0068b5"/>
      <path d="M266.91,139.19c0-.31-.16-.64-.9-.64v-.2h2.79c1.75,0,2.81.61,2.81,1.85s-.92,1.64-1.91,1.77l2.09,2.58a1.28,1.28,0,0,0,1,.59v.2h-1.71l-2.52-3.25-.58,0v2.39c0,.31.15.64.92.64v.2H266v-.2c.74,0,.9-.33.9-.64Zm1.08,2.53c1.53-.06,2.47-.37,2.47-1.52s-.74-1.45-1.69-1.45c-.69,0-.78,0-.78.49Z" style="fill: #0068b5"/>
      <path d="M294,141.85a3.42,3.42,0,0,1-3.46,3.64,3.46,3.46,0,0,1-3.47-3.64,3.47,3.47,0,1,1,6.93,0m-5.72,0c0,2.17,1,3.35,2.26,3.27,1.88-.16,2.32-2.14,2.26-3.27,0-1.66-.62-3.29-2.26-3.28s-2.26,1.25-2.26,3.28" style="fill: #0068b5"/>
    </g>
    <circle cx="18.58" cy="168.2" r="5" style="fill: #231815"/>
    <circle cx="62.25" cy="168.2" r="5" style="fill: #231815"/>
    <circle cx="105.92" cy="168.2" r="5" style="fill: #231815"/>
  </g>
</svg>
